<?xml version="1.0" encoding="UTF-8"?>
<svg id="Layer_1" xmlns="http://www.w3.org/2000/svg" version="1.1" viewBox="0 0 5000 1500">
  <!-- Generator: Adobe Illustrator 30.0.0, SVG Export Plug-In . SVG Version: 2.1.1 Build 123)  -->
  <defs>
    <style>
      .st0 {
        fill: #91c176;
      }

      .st1 {
        fill: #fff;
      }

      .st2 {
        fill: #db5d8a;
      }

      .st3 {
        fill: #fce229;
      }

      .st4 {
        fill: #a2c9f4;
      }

      .st5 {
        fill: #fc95ce;
      }

      .st6 {
        fill: #ad4b44;
      }

      .st7 {
        fill: #fc8475;
      }

      .st8 {
        fill: #fffbf0;
      }

      .st9 {
        fill: #ffa645;
      }

      .st10 {
        fill: #6ca5d8;
      }

      .st11 {
        fill: #759947;
      }
    </style>
  </defs>
  <rect class="st1" x="-.12" y="-.12" width="5000" height="1500"/>
  <g>
    <g>
      <polygon class="st10" points="4668.94 634.91 4668.94 837.31 4524.16 837.31 4524.16 982.11 4321.74 982.11 4321.74 837.31 4176.96 837.31 4176.96 634.91 4321.74 634.91 4321.74 490.1 4524.16 490.1 4524.16 634.91 4668.94 634.91"/>
      <path d="M4524.17,986.59h-202.43c-2.48,0-4.48-2.01-4.48-4.48v-140.32h-140.29c-2.48,0-4.48-2.01-4.48-4.48v-202.4c0-2.48,2.01-4.48,4.48-4.48h140.29v-140.32c0-2.48,2.01-4.48,4.48-4.48h202.43c2.48,0,4.48,2.01,4.48,4.48v140.32h140.29c2.48,0,4.48,2.01,4.48,4.48v202.4c0,2.48-2.01,4.48-4.48,4.48h-140.29v140.32c0,2.48-2.01,4.48-4.48,4.48ZM4326.22,977.63h193.46v-140.32c0-2.48,2.01-4.48,4.48-4.48h140.29v-193.43h-140.29c-2.48,0-4.48-2.01-4.48-4.48v-140.32h-193.46v140.32c0,2.48-2.01,4.48-4.48,4.48h-140.29v193.43h140.29c2.48,0,4.48,2.01,4.48,4.48v140.32Z"/>
    </g>
    <path d="M4180.33,785.8c-2.82,1.61-5.63,3.25-8.6,4.58-20.37,10.02-43.25,14.97-66.59,13.55-11.66-.76-23.48-3.22-34.8-7.95-11.3-4.69-22.08-11.78-30.86-21.05-8.8-9.22-15.5-20.51-19.4-32.21-3.98-11.72-5.51-23.64-5.7-35.16.16-22.98,5.48-44.25,12.78-63.87,1.32-3.41,2.74-6.75,4.11-10.12,2.28-5.88,7.02-9.86,12.11-11.84,5.14-1.96,10.85-1.74,16.02.89,5.17,2.63,8.86,7.09,10.74,12,1.92,4.93,1.75,10.26-.14,15.21-1.16,2.87-2.39,5.72-3.5,8.59-6.17,16.43-9.99,33.25-10.11,48.9.17,7.73,1.19,15.12,3.41,21.69,2.17,6.61,5.66,12.25,10.15,16.99,8.91,9.5,22.78,15.09,37.95,16.01,15.14.94,31.28-2.33,45.46-9.4,2.09-.9,4.03-2.07,5.99-3.19,2.11-1.11,4.28-1.88,6.6-2.19,2.35-.26,4.84-.08,7.25.35,4.88.99,10.06,3.61,13.84,8.01,3.77,4.4,5.26,9.93,4.17,15.61-.5,2.89-1.75,5.62-3.6,8.11-1.83,2.53-4.24,4.86-7.25,6.48Z"/>
    <path d="M4682.04,870.53c1.56-1.64,3.17-3.24,4.54-5.05,10.28-12.05,17.36-26.92,20.1-41.84,2.78-14.94.7-29.75-6.36-40.69-3.51-5.5-8.15-10.25-14.04-13.95-5.85-3.74-12.77-6.51-20.23-8.55-15.22-3.66-32.46-4.02-49.9-2-3.05.39-6.12.89-9.18,1.32-5.26.64-10.47-.48-14.79-3.54-4.31-3.01-7.75-7.67-9.05-13.32-1.3-5.65-.13-11.25,3.01-15.76,3.15-4.46,8.15-8.1,14.41-8.89,3.61-.52,7.19-1.09,10.81-1.54,20.81-2.34,42.73-2.37,65.07,3.03,11.14,2.98,22.33,7.34,32.74,14.03,10.42,6.61,19.75,15.84,26.57,26.61,6.87,10.76,11.14,22.94,12.97,35.03,1.85,12.13,1.38,24.2-.7,35.69-4.27,22.99-14.59,44-29.24,61.35-2,2.56-4.27,4.89-6.52,7.24-2.3,2.53-5.14,4.31-8.04,5.47-2.87,1.2-5.82,1.75-8.74,1.54-5.78-.32-10.78-3.09-14.14-7.82-3.36-4.72-4.65-10.38-4.43-15.36.16-2.45.59-4.9,1.41-7.12.85-2.18,2.13-4.09,3.72-5.88Z"/>
    <g>
      <polygon class="st4" points="4623.29 634.91 4623.29 837.31 4478.52 837.31 4478.52 982.11 4276.09 982.11 4276.09 837.31 4131.32 837.31 4131.32 634.91 4276.09 634.91 4276.09 490.1 4478.52 490.1 4478.52 634.91 4623.29 634.91"/>
      <path d="M4478.52,986.59h-202.43c-2.48,0-4.48-2.01-4.48-4.48v-140.32h-140.29c-2.48,0-4.48-2.01-4.48-4.48v-202.4c0-2.48,2.01-4.48,4.48-4.48h140.29v-140.32c0-2.48,2.01-4.48,4.48-4.48h202.43c2.48,0,4.48,2.01,4.48,4.48v140.32h140.29c2.48,0,4.48,2.01,4.48,4.48v202.4c0,2.48-2.01,4.48-4.48,4.48h-140.29v140.32c0,2.48-2.01,4.48-4.48,4.48ZM4280.57,977.63h193.46v-140.32c0-2.48,2.01-4.48,4.48-4.48h140.29v-193.43h-140.29c-2.47,0-4.48-2.01-4.48-4.48v-140.32h-193.46v140.32c0,2.48-2.01,4.48-4.48,4.48h-140.29v193.43h140.29c2.48,0,4.48,2.01,4.48,4.48v140.32Z"/>
    </g>
    <g>
      <path class="st8" d="M4366.65,710.3c0,23.16-6.19,43.82-15.81,57.29-7.35,10.22-16.68,16.35-26.78,16.35-23.55,0-42.62-32.97-42.62-73.64s19.07-73.67,42.62-73.67c10.1,0,19.43,6.13,26.78,16.35,9.62,13.51,15.81,34.16,15.81,57.32Z"/>
      <path d="M4324.06,788.43c-26.41,0-47.1-34.32-47.1-78.13s20.69-78.16,47.1-78.16c11.17,0,21.97,6.47,30.42,18.21,10.59,14.86,16.65,36.71,16.65,59.94s-6.07,45.08-16.65,59.9c-8.46,11.76-19.26,18.23-30.43,18.23ZM4324.06,641.11c-20.67,0-38.14,31.69-38.14,69.19s17.46,69.16,38.14,69.16c8.2,0,16.42-5.15,23.14-14.49,9.51-13.32,14.97-33.25,14.97-54.68s-5.46-41.36-14.98-54.72c-6.71-9.32-14.92-14.47-23.13-14.47Z"/>
    </g>
    <path d="M4366.65,710.3c0,23.16-6.19,43.82-15.81,57.29-1.67.42-3.41.66-5.17.66-16.86,0-30.78-21.43-33.18-49.37l24.48-10.1-24.51-6.58c2.27-28.18,16.26-49.88,33.2-49.88,1.76,0,3.5.24,5.17.66,9.62,13.51,15.81,34.16,15.81,57.32Z"/>
    <g>
      <g>
        <path class="st8" d="M4477.14,710.3c0,23.16-6.19,43.82-15.81,57.29-7.35,10.22-16.68,16.35-26.78,16.35-23.55,0-42.62-32.97-42.62-73.64s19.07-73.67,42.62-73.67c10.1,0,19.43,6.13,26.78,16.35,9.62,13.51,15.81,34.16,15.81,57.32Z"/>
        <path d="M4434.55,788.43c-26.41,0-47.1-34.32-47.1-78.13s20.69-78.16,47.1-78.16c11.17,0,21.97,6.47,30.42,18.21,10.59,14.86,16.65,36.71,16.65,59.94s-6.07,45.08-16.65,59.9c-8.46,11.76-19.26,18.23-30.43,18.23ZM4434.55,641.11c-20.67,0-38.14,31.69-38.14,69.19s17.46,69.16,38.14,69.16c8.2,0,16.42-5.15,23.14-14.49,9.51-13.32,14.97-33.25,14.97-54.68s-5.46-41.36-14.98-54.72c-6.71-9.32-14.92-14.47-23.13-14.47Z"/>
      </g>
      <path d="M4477.14,710.3c0,23.16-6.19,43.82-15.81,57.29-1.67.42-3.41.66-5.17.66-16.86,0-30.78-21.43-33.18-49.37l24.48-10.1-24.51-6.58c2.27-28.18,16.26-49.88,33.2-49.88,1.76,0,3.5.24,5.17.66,9.62,13.51,15.81,34.16,15.81,57.32Z"/>
    </g>
    <path d="M4258.34,796.02c-.76,0-1.48-.03-2.15-.09-2.47-.22-4.29-2.4-4.06-4.87.22-2.46,2.4-4.27,4.85-4.06,1.54.13,15.06.81,16.83-12.59.32-2.45,2.58-4.19,5.03-3.86,2.45.32,4.18,2.58,3.86,5.03-2.16,16.31-15.83,20.44-24.36,20.44Z"/>
    <path d="M4386.01,821.97c-13.84,0-28.36-1.43-43.47-4.31-42.28-8.05-73.81-24.29-75.13-24.97-2.2-1.14-3.05-3.85-1.91-6.04,1.14-2.2,3.84-3.05,6.04-1.91,1.25.65,125.45,63.92,204.98-1.41,1.91-1.57,4.74-1.3,6.31.62,1.57,1.91,1.29,4.74-.62,6.31-25.57,21.01-58.33,31.71-96.21,31.71Z"/>
    <path d="M4498.02,799.3c-.11,0-.23,0-.34-.01-19.69-1.49-32.5-21.03-33.03-21.86-1.34-2.08-.74-4.85,1.34-6.2,2.08-1.34,4.85-.74,6.19,1.33h0c.11.17,10.98,16.64,26.18,17.78,2.47.19,4.32,2.34,4.13,4.81-.18,2.35-2.15,4.14-4.47,4.14Z"/>
    <g>
      <g>
        <path class="st8" d="M4648.79,867.03c-61.9,1.68-90.25,45.44-51.01,57.04,39.24,11.61,51.01-57.04,51.01-57.04Z"/>
        <path d="M4606.49,929.88c-3.24,0-6.57-.5-9.98-1.51-14.69-4.35-22.56-13.79-21.06-25.27,2.49-19.02,30.56-39.39,73.22-40.55,1.3-.1,2.63.53,3.51,1.54.88,1.02,1.26,2.37,1.03,3.7-.3,1.75-7.64,43.16-30.4,57.33-5.1,3.18-10.57,4.77-16.32,4.77ZM4643.19,871.79c-36,2.62-57.22,20.07-58.84,32.47-1.22,9.35,8.69,13.73,14.71,15.51,7.01,2.08,13.23,1.33,19.01-2.26,14.92-9.28,22.43-34.48,25.12-45.72Z"/>
      </g>
      <g>
        <path class="st8" d="M4656.27,858.45s-37.51,31.98-70.79,64.75c-33.28,32.77-12.49,73.88,26.72,49.23,14.49,30.3,40.73,18.78,40.73,18.78,0,0,20.62,36.76,42.81,6.46,26.71-36.47,26.88-84.12,13.86-98.82-13.02-14.7-53.34-40.41-53.34-40.41Z"/>
        <path d="M4677.22,1014.13c-.42,0-.84-.01-1.26-.04-11.99-.73-21.13-11.96-24.97-17.57-8.12,2.09-27.67,4.28-40.58-17.87-19.33,10.39-33.33,5.35-40.21-3.34-9.59-12.11-8.5-35,12.13-55.31,33.01-32.51,70.65-64.64,71.03-64.96,1.5-1.28,3.66-1.43,5.32-.37,1.67,1.06,41,26.22,54.28,41.21,15.59,17.61,13.01,68.12-13.6,104.44-6.71,9.16-14.16,13.81-22.14,13.81ZM4652.92,986.73c1.58,0,3.11.83,3.92,2.28,2.43,4.3,10.71,15.6,19.68,16.13,5.23.31,10.46-3.1,15.61-10.12,11.63-15.88,19.09-35.54,20.99-55.35,1.58-16.5-1.11-31.35-6.86-37.84-10.51-11.87-40.32-31.73-49.6-37.79-8.97,7.74-40.17,34.93-68.02,62.35-16.68,16.43-18.32,34.6-11.39,43.36,6.31,7.98,18.8,7.55,32.58-1.11,1.08-.69,2.4-.87,3.63-.51,1.23.35,2.25,1.22,2.8,2.37,12.17,25.45,32.62,17.58,34.9,16.6.57-.25,1.18-.36,1.77-.36Z"/>
      </g>
      <g>
        <path class="st8" d="M4678.54,904.62c44.38,33.62,61.41,11.14,65.97-4.45,4.56-15.6-11.24-17.14-35.4-35.89-25.96-20.15-35.94-35.02-48.92-21.64-14.32,14.76-21.99,31.42,18.36,61.99Z"/>
        <path d="M4718.19,926.6c-12,0-26.2-6.16-42.36-18.4-20.58-15.59-30.62-28.76-31.58-41.46-.88-11.54,5.94-20.24,12.72-27.22,13.17-13.57,24.69-3.87,40.62,9.56,4.17,3.51,8.89,7.49,14.27,11.66,7.31,5.67,13.97,9.82,19.33,13.15,12.61,7.85,21.73,13.51,17.63,27.54-1.63,5.58-6.92,19.05-20.83,23.64-3.08,1.02-6.35,1.53-9.79,1.53ZM4670.27,841.99c-2.43,0-4.48,1.3-6.87,3.77-7.64,7.87-10.69,13.94-10.21,20.29.74,9.68,10.18,21.45,28.06,35h0c18.05,13.67,33.22,19.04,43.92,15.51,9.87-3.26,13.8-13.43,15.03-17.65,2.01-6.89-.43-9.12-13.76-17.41-5.53-3.44-12.42-7.72-20.09-13.68-5.52-4.28-10.31-8.32-14.55-11.89-11.38-9.58-17.09-13.94-21.54-13.94Z"/>
      </g>
    </g>
    <g>
      <g>
        <path class="st8" d="M4098.42,666.19s37.98-31.42,71.74-63.7c33.76-32.27,13.58-73.69-25.99-49.62-14.04-30.51-40.45-19.38-40.45-19.38,0,0-20.08-37.06-42.71-7.09-27.25,36.07-28.12,83.71-15.31,98.6,12.81,14.89,52.74,41.19,52.74,41.19Z"/>
        <path d="M4098.42,670.67c-.86,0-1.71-.24-2.47-.74-1.65-1.09-40.61-26.82-53.67-42.01-15.34-17.83-12-68.3,15.14-104.23,7.21-9.54,15.16-14.07,23.6-13.42,11.98.9,20.95,12.27,24.71,17.94,8.15-1.98,27.72-3.88,40.31,18.46,19.49-10.1,33.41-4.86,40.16,3.93,9.41,12.25,7.98,35.12-12.94,55.13-33.49,32.02-71.6,63.59-71.98,63.91-.82.68-1.84,1.03-2.86,1.03ZM4079.52,519.18c-4.95,0-9.97,3.33-14.95,9.92-11.87,15.71-19.61,35.26-21.8,55.03-1.82,16.47.65,31.37,6.31,37.94,10.34,12.02,39.85,32.33,49.04,38.52,9.08-7.61,40.68-34.33,68.94-61.35,16.92-16.18,18.83-34.33,12.02-43.18-6.19-8.07-18.68-7.83-32.59.63-1.09.67-2.42.83-3.64.46-1.22-.37-2.23-1.25-2.76-2.41-11.79-25.62-32.35-18.06-34.66-17.11-2.11.87-4.57.01-5.66-2-2.37-4.34-10.48-15.75-19.44-16.41-.27-.02-.54-.03-.81-.03Z"/>
      </g>
      <g>
        <path class="st8" d="M4106.02,657.73c61.92-.77,84.17-31.2,51.84-56.28-8.14-6.31-25.72-.29-32.99,6.24"/>
        <path d="M4106.02,662.21c-2.45,0-4.45-1.97-4.48-4.43-.03-2.48,1.95-4.51,4.43-4.54,39.7-.49,57.91-12.96,61.44-23.48,2.62-7.8-1.75-16.6-12.29-24.78-5.87-4.55-21.13.54-27.25,6.04-1.84,1.65-4.67,1.51-6.33-.34-1.65-1.84-1.5-4.68.34-6.33,8.68-7.8,28.56-14.35,38.74-6.45,18.6,14.43,17.57,27.94,15.29,34.71-5.97,17.79-32.73,29.13-69.83,29.59h-.06Z"/>
      </g>
      <g>
        <path class="st8" d="M4076.84,619.69c-43.88-34.27-61.24-12.05-66.03,3.48-4.79,15.53,10.99,17.3,34.87,36.41,25.66,20.53,35.42,35.54,48.6,22.36,14.54-14.55,22.45-31.09-17.44-62.25Z"/>
        <path d="M4084.47,691.46c-8.48,0-17.02-7.41-27.49-16.5-4.12-3.57-8.78-7.62-14.1-11.87-7.23-5.78-13.83-10.02-19.13-13.43-12.5-8.03-21.53-13.83-17.22-27.8,1.71-5.55,7.2-18.95,21.17-23.33,13.87-4.36,31.33,1.58,51.9,17.64,20.35,15.89,30.19,29.21,30.97,41.92.71,11.55-6.23,20.14-13.11,27.03-4.47,4.47-8.72,6.35-12.98,6.35ZM4036.95,606.12c-2.34,0-4.53.32-6.56.96-9.91,3.11-14,13.22-15.29,17.42-2.12,6.86.29,9.12,13.5,17.61,5.48,3.52,12.3,7.9,19.89,13.97,5.46,4.36,10.19,8.48,14.37,12.1,17.39,15.09,21.39,17.45,28.25,10.58,7.75-7.76,10.9-13.78,10.51-20.14-.59-9.69-9.86-21.6-27.54-35.4h0c-14.47-11.3-27.13-17.11-37.13-17.11Z"/>
      </g>
      <g>
        <path class="st8" d="M4067.18,519.74c-25.17,46.85,5.34,76.95,22.71,54.66"/>
        <path d="M4076.59,586.41c-3.49,0-6.99-1.05-10.29-3.19-13.75-8.96-19.51-35-3.07-65.6,1.17-2.18,3.88-3.01,6.07-1.83,2.18,1.17,3,3.89,1.83,6.07-14.76,27.49-8.85,48.03.07,53.84,5.06,3.3,10.58,1.81,15.16-4.06,1.52-1.95,4.34-2.3,6.29-.78,1.95,1.52,2.3,4.34.78,6.29-4.74,6.08-10.76,9.25-16.84,9.25Z"/>
      </g>
      <g>
        <path class="st8" d="M4101,535.79c-19.64,22.83-11.49,57.26,4.16,59.12,15.65,1.86,24.27-9.94,24.27-9.94"/>
        <path d="M4108.52,599.6c-1.25,0-2.55-.07-3.9-.23-7.12-.85-13.2-6.47-16.69-15.44-5.31-13.65-4.38-34.73,9.66-51.06,1.62-1.88,4.45-2.09,6.32-.47,1.88,1.62,2.09,4.45.47,6.32-11.56,13.43-12.3,31.16-8.1,41.96,2.22,5.69,5.73,9.35,9.39,9.79,12.88,1.54,20.05-8.03,20.12-8.13,1.46-2,4.26-2.44,6.26-.98,2,1.46,2.44,4.26.98,6.26-.38.53-8.94,11.98-24.52,11.98Z"/>
      </g>
      <g>
        <path class="st8" d="M4144.17,552.87c-29.15,30.43-6.49,47.86-6.49,47.86"/>
        <path d="M4137.66,605.21c-.95,0-1.9-.3-2.71-.93-.37-.29-9.1-7.14-10.05-19.7-.84-11.11,4.56-22.82,16.04-34.81,1.71-1.79,4.55-1.85,6.34-.14,1.79,1.71,1.85,4.55.14,6.34-9.59,10.01-14.16,19.36-13.59,27.78.58,8.55,6.37,13.25,6.62,13.44,1.93,1.53,2.28,4.34.76,6.28-.89,1.13-2.2,1.73-3.54,1.73Z"/>
      </g>
    </g>
  </g>
  <g>
    <g>
      <rect class="st9" x="3274" y="484.07" width="305.08" height="741.53" rx="24.36" ry="24.36" transform="translate(4281.37 -2571.71) rotate(90)"/>
      <path d="M3739.46,1014.13h-625.84c-35.62,0-64.6-28.98-64.6-64.6v-189.4c0-35.62,28.98-64.6,64.6-64.6h625.84c35.62,0,64.6,28.98,64.6,64.6v189.4c0,35.62-28.98,64.6-64.6,64.6ZM3113.62,709.05c-28.17,0-51.09,22.91-51.09,51.08v189.4c0,28.17,22.92,51.09,51.09,51.09h625.84c28.17,0,51.09-22.92,51.09-51.09v-189.4c0-28.17-22.92-51.08-51.09-51.08h-625.84Z"/>
    </g>
    <path d="M3031.58,900.98c-4.25,2.43-8.49,4.9-12.97,6.9-30.71,15.11-65.19,22.56-100.37,20.42-17.57-1.14-35.39-4.86-52.45-11.98-17.03-7.07-33.27-17.75-46.51-31.72-13.26-13.9-23.37-30.91-29.24-48.55-5.99-17.66-8.3-35.63-8.6-53,.24-34.64,8.26-66.69,19.26-96.27,1.98-5.14,4.13-10.17,6.2-15.25,3.44-8.87,10.58-14.87,18.25-17.84,7.75-2.95,16.36-2.62,24.15,1.34,7.79,3.96,13.36,10.69,16.18,18.09,2.9,7.44,2.64,15.46-.21,22.93-1.75,4.32-3.61,8.62-5.28,12.95-9.3,24.77-15.06,50.12-15.24,73.71.26,11.66,1.79,22.78,5.13,32.7,3.28,9.96,8.53,18.47,15.3,25.61,13.43,14.31,34.34,22.75,57.2,24.13,22.81,1.42,47.15-3.52,68.51-14.16,3.15-1.35,6.07-3.12,9.04-4.81,3.19-1.67,6.45-2.84,9.95-3.29,3.54-.4,7.29-.13,10.93.53,7.36,1.49,15.17,5.44,20.86,12.07,5.69,6.63,7.92,14.96,6.28,23.53-.75,4.35-2.64,8.46-5.43,12.22-2.75,3.82-6.38,7.32-10.93,9.77Z"/>
    <g>
      <g>
        <path class="st8" d="M2908.12,720.71s57.24-47.36,108.12-96c50.88-48.64,20.46-111.07-39.18-74.79-21.16-45.99-60.97-29.21-60.97-29.21,0,0-30.26-55.86-64.38-10.69-41.07,54.37-42.38,126.17-23.08,148.61,19.3,22.44,79.49,62.08,79.49,62.08Z"/>
        <path d="M2908.12,727.46c-1.29,0-2.58-.37-3.72-1.11-2.49-1.64-61.2-40.42-80.9-63.32-23.11-26.87-18.09-102.94,22.81-157.09,10.87-14.39,22.86-21.18,35.57-20.23,18.06,1.36,31.58,18.49,37.24,27.03,12.28-2.99,41.79-5.84,60.75,27.83,29.38-15.24,50.36-7.32,60.53,5.93,14.18,18.47,12.03,52.94-19.51,83.09-50.47,48.25-107.91,95.85-108.48,96.32-1.25,1.03-2.77,1.55-4.31,1.55ZM2879.64,499.14c-7.46,0-15.03,5.02-22.52,14.95-17.89,23.68-29.56,53.14-32.86,82.95-2.75,24.83.98,47.27,9.5,57.18,15.59,18.13,60.07,48.72,73.92,58.06,13.69-11.46,61.31-51.74,103.9-92.46,25.51-24.39,28.37-51.74,18.12-65.09-9.34-12.17-28.16-11.8-49.12.95-1.65,1-3.64,1.25-5.49.69-1.84-.56-3.36-1.89-4.16-3.64-18.23-39.6-50.83-26.39-52.2-25.8-3.23,1.35-6.91.05-8.56-3.01-3.57-6.54-15.8-23.74-29.3-24.74-.41-.03-.82-.05-1.22-.05Z"/>
      </g>
      <g>
        <path class="st8" d="M2919.58,707.95c93.32-1.16,126.86-47.03,78.14-84.83-12.27-9.52-38.77-.44-49.73,9.41"/>
        <path d="M2919.58,714.71c-3.7,0-6.71-2.97-6.76-6.67-.04-3.73,2.94-6.79,6.67-6.84,59.84-.74,87.28-19.53,92.6-35.39,3.95-11.75-2.63-25.02-18.52-37.34-8.85-6.88-31.86.81-41.07,9.09-2.78,2.5-7.06,2.27-9.54-.51-2.49-2.78-2.27-7.05.51-9.54,13.08-11.76,43.04-21.65,58.39-9.72,28.03,21.75,26.47,42.12,23.05,52.32-9,26.82-49.33,43.91-105.25,44.61h-.08Z"/>
      </g>
      <g>
        <path class="st8" d="M2875.59,650.63c-66.14-51.65-92.3-18.16-99.52,5.25-7.22,23.4,16.56,26.08,52.56,54.88,38.67,30.94,53.39,53.57,73.25,33.7,21.92-21.92,33.84-46.87-26.29-93.82Z"/>
        <path d="M2887.08,758.79c-12.78,0-25.65-11.17-41.44-24.87-6.2-5.38-13.23-11.48-21.24-17.89-10.89-8.71-20.84-15.11-28.84-20.24-18.84-12.11-32.45-20.85-25.96-41.9,2.58-8.38,10.86-28.56,31.92-35.17,20.93-6.58,47.22,2.38,78.22,26.58h0c30.67,23.96,45.5,44.04,46.68,63.19,1.07,17.41-9.39,30.36-19.77,40.74-6.74,6.74-13.14,9.56-19.57,9.56ZM2815.46,630.17c-3.52,0-6.82.48-9.88,1.44-14.94,4.69-21.1,19.93-23.05,26.26-3.19,10.34.44,13.75,20.35,26.54,8.26,5.31,18.54,11.91,29.98,21.07,8.22,6.58,15.35,12.77,21.65,18.23,26.21,22.75,32.24,26.32,42.59,15.96,11.69-11.69,16.42-20.77,15.84-30.36-.9-14.6-14.86-32.55-41.51-53.36h0c-21.8-17.03-40.9-25.79-55.97-25.79Z"/>
      </g>
      <g>
        <path class="st8" d="M2861.03,499.98c-37.93,70.62,8.05,115.98,34.23,82.38"/>
        <path d="M2875.21,600.47c-5.26,0-10.54-1.58-15.5-4.81-20.73-13.51-29.4-52.75-4.63-98.87,1.77-3.29,5.88-4.52,9.15-2.75,3.29,1.76,4.52,5.86,2.75,9.15-22.26,41.43-13.34,72.4.1,81.15,7.62,4.97,15.95,2.73,22.85-6.12,2.3-2.95,6.55-3.47,9.48-1.18,2.94,2.29,3.47,6.54,1.18,9.48-7.14,9.16-16.22,13.95-25.39,13.95Z"/>
      </g>
      <g>
        <path class="st8" d="M2912,524.17c-29.6,34.4-17.32,86.3,6.27,89.11,23.59,2.81,36.58-14.98,36.58-14.98"/>
        <path d="M2923.34,620.34c-1.89,0-3.84-.11-5.87-.35-10.73-1.28-19.9-9.76-25.15-23.27-8-20.58-6.6-52.35,14.57-76.95,2.42-2.82,6.7-3.15,9.53-.71,2.83,2.43,3.15,6.7.71,9.53-17.42,20.24-18.54,46.97-12.21,63.24,3.33,8.58,8.63,14.09,14.15,14.75,19.24,2.3,29.9-11.69,30.35-12.29,2.23-2.98,6.45-3.61,9.44-1.4,2.99,2.21,3.65,6.4,1.46,9.4-.58.79-13.48,18.06-36.97,18.06Z"/>
      </g>
      <g>
        <path class="st8" d="M2977.07,549.91c-43.93,45.86-9.78,72.13-9.78,72.13"/>
        <path d="M2967.28,628.8c-1.44,0-2.89-.46-4.12-1.4-.56-.43-13.72-10.76-15.15-29.69-1.27-16.74,6.87-34.4,24.18-52.47,2.57-2.7,6.86-2.79,9.55-.21,2.7,2.58,2.79,6.86.21,9.56-14.54,15.19-21.43,29.35-20.46,42.11.97,12.77,9.83,19.93,9.92,20,2.96,2.27,3.51,6.52,1.23,9.48-1.33,1.73-3.33,2.64-5.36,2.64Z"/>
      </g>
    </g>
    <path d="M3784.93,834.83l5.24,1.51,5.25,1.21c19.6,4.74,39.48,5.84,55.96,2.55,8.2-1.67,15.27-4.56,20.67-8.34,5.42-3.8,9.32-8.37,12.24-14.27,2.9-5.88,4.67-13.27,5.24-21.65.45-8.45-.52-17.79-2.1-27.29-3.77-19.21-11.02-39.18-20.15-58.71l-2.95-6.37-3.25-6.32c-1.88-3.62-2.81-7.5-3.11-11.41-.36-3.89.08-7.84,1.22-11.64,2.29-7.6,7.4-14.65,14.93-19.09,7.53-4.44,16.12-5.32,24.04-2.94,3.96,1.19,7.74,3.18,11.1,5.89,3.31,2.75,6.09,6.34,8.23,10.47l3.71,7.22,3.46,7.44c10.61,22.84,19.75,47.07,25,73.83,2.31,13.55,3.87,27.59,3.07,42.55-.95,14.93-4.21,30.83-11.65,45.97-7.31,15.13-19.13,28.86-32.98,38.34-13.84,9.61-29.08,15.23-43.76,18.27-14.75,3.04-29.12,3.65-43,2.98-13.91-.63-27.28-2.79-40.21-5.82l-6.9-1.62-6.75-1.92c-4.76-1.29-8.94-3.57-12.38-6.48-3.47-2.85-6.23-6.23-8.06-10.08-3.74-7.6-4.08-16.24-.71-24.3,3.37-8.06,9.63-14.12,16.56-17.57,3.47-1.66,7.17-2.87,10.89-3.31,3.71-.38,7.45-.1,11.14.88Z"/>
    <g>
      <g>
        <path class="st8" d="M3815.28,720.71s-57.24-47.36-108.12-96c-50.88-48.64-20.46-111.07,39.18-74.79,21.16-45.99,60.97-29.21,60.97-29.21,0,0,30.26-55.86,64.38-10.69,41.07,54.37,42.38,126.17,23.08,148.61-19.3,22.44-79.49,62.08-79.49,62.08Z"/>
        <path d="M3815.29,727.46c-1.54,0-3.06-.52-4.31-1.55-.58-.48-58.01-48.07-108.49-96.32-31.54-30.15-33.68-64.62-19.51-83.09,10.17-13.25,31.16-21.16,60.53-5.93,18.97-33.67,48.47-30.81,60.75-27.83,5.67-8.55,19.18-25.67,37.24-27.03,12.78-.98,24.71,5.85,35.58,20.23,40.9,54.15,45.92,130.22,22.81,157.09-19.69,22.89-78.41,61.68-80.89,63.32-1.13.74-2.43,1.11-3.72,1.11ZM3713.23,545.86c-8.19,0-14.98,2.95-19.53,8.87-10.25,13.35-7.39,40.7,18.12,65.09,42.6,40.72,90.22,81,103.9,92.46,13.85-9.33,58.33-39.94,73.92-58.06,8.52-9.91,12.25-32.35,9.5-57.18-3.3-29.81-14.97-59.27-32.86-82.95-7.91-10.47-15.93-15.49-23.75-14.9-13.51,1-25.73,18.2-29.31,24.75-1.66,3.05-5.35,4.35-8.56,3-3.44-1.42-34.44-12.81-52.21,25.8-.81,1.75-2.32,3.07-4.16,3.64-1.84.56-3.84.31-5.49-.69-10.76-6.55-20.95-9.83-29.59-9.83Z"/>
      </g>
      <g>
        <path class="st8" d="M3803.83,707.95c-93.32-1.16-126.86-47.03-78.14-84.83,12.27-9.52,38.77-.44,49.73,9.41"/>
        <path d="M3803.83,714.71h-.08c-55.92-.7-96.25-17.79-105.24-44.6-3.43-10.21-4.98-30.57,23.05-52.33,15.34-11.9,45.31-2.03,58.39,9.72,2.78,2.49,3,6.77.51,9.55-2.5,2.77-6.76,3-9.55.51-9.22-8.29-32.24-15.97-41.07-9.1-15.89,12.33-22.47,25.59-18.52,37.34,5.32,15.86,32.77,34.65,92.6,35.39,3.73.05,6.72,3.11,6.67,6.84-.05,3.7-3.06,6.67-6.76,6.67Z"/>
      </g>
      <g>
        <path class="st8" d="M3847.82,650.63c66.14-51.65,92.3-18.16,99.52,5.25,7.22,23.4-16.56,26.08-52.56,54.88-38.67,30.94-53.39,53.57-73.25,33.7-21.91-21.92-33.84-46.87,26.29-93.82Z"/>
        <path d="M3836.32,758.79c-6.43,0-12.83-2.82-19.57-9.56-10.37-10.38-20.83-23.34-19.77-40.74,1.17-19.16,16-39.24,46.67-63.19h0c31-24.21,57.31-33.16,78.22-26.58,21.05,6.61,29.33,26.8,31.91,35.17,6.49,21.05-7.12,29.79-25.95,41.89-8,5.14-17.95,11.53-28.84,20.25-8.01,6.41-15.04,12.51-21.24,17.9-15.79,13.7-28.66,24.87-41.44,24.87ZM3851.98,655.96c-26.64,20.81-40.6,38.76-41.5,53.36-.59,9.59,4.15,18.67,15.83,30.36,10.36,10.36,16.39,6.79,42.59-15.96,6.3-5.46,13.44-11.66,21.66-18.23,11.44-9.15,21.72-15.76,29.98-21.07,19.91-12.8,23.54-16.21,20.35-26.54-1.95-6.33-8.1-21.56-23.04-26.26-16.18-5.09-38.95,3.33-65.86,24.34h0Z"/>
      </g>
      <g>
        <path class="st8" d="M3862.37,499.98c37.93,70.62-8.05,115.98-34.23,82.38"/>
        <path d="M3848.19,600.47c-9.16,0-18.25-4.79-25.38-13.95-2.3-2.94-1.77-7.19,1.17-9.48,2.94-2.29,7.19-1.77,9.48,1.17,6.91,8.86,15.24,11.09,22.86,6.12,13.43-8.76,22.35-39.72.1-81.15-1.77-3.29-.53-7.39,2.75-9.15,3.28-1.76,7.39-.53,9.15,2.75,24.77,46.12,16.11,85.36-4.62,98.87-4.96,3.23-10.25,4.81-15.51,4.81Z"/>
      </g>
      <g>
        <path class="st8" d="M3811.41,524.17c29.6,34.4,17.32,86.3-6.27,89.11-23.59,2.81-36.58-14.98-36.58-14.98"/>
        <path d="M3800.07,620.34c-23.49,0-36.38-17.26-36.97-18.06-2.2-3.01-1.54-7.24,1.47-9.44,3.02-2.21,7.24-1.54,9.44,1.47.42.56,11.09,14.53,30.32,12.26,5.53-.66,10.82-6.17,14.16-14.75,6.33-16.27,5.2-43-12.21-63.24-2.44-2.83-2.12-7.1.71-9.53,2.84-2.44,7.1-2.11,9.53.71,21.17,24.6,22.57,56.37,14.57,76.95-5.26,13.51-14.42,22-25.16,23.27-2.02.24-3.98.35-5.87.35Z"/>
      </g>
      <g>
        <path class="st8" d="M3746.34,549.91c43.93,45.86,9.78,72.13,9.78,72.13"/>
        <path d="M3756.13,628.8c-2.02,0-4.03-.91-5.36-2.64-2.28-2.96-1.72-7.2,1.23-9.48.33-.26,9.06-7.34,9.94-20.23.86-12.7-6.03-26.78-20.48-41.87-2.58-2.69-2.49-6.97.21-9.56,2.68-2.58,6.97-2.49,9.55.21,17.31,18.08,25.45,35.73,24.18,52.48-1.43,18.93-14.59,29.25-15.15,29.69-1.23.95-2.68,1.4-4.12,1.4Z"/>
      </g>
    </g>
    <g>
      <rect class="st3" x="3207.27" y="484.07" width="305.08" height="741.53" rx="24.36" ry="24.36" transform="translate(4214.65 -2504.98) rotate(90)"/>
      <path d="M3672.74,1014.13h-625.85c-35.62,0-64.6-28.98-64.6-64.6v-189.4c0-35.62,28.98-64.6,64.6-64.6h625.85c35.62,0,64.6,28.98,64.6,64.6v189.4c0,35.62-28.98,64.6-64.6,64.6ZM3046.89,709.05c-28.17,0-51.08,22.91-51.08,51.08v189.4c0,28.17,22.91,51.09,51.08,51.09h625.85c28.17,0,51.09-22.92,51.09-51.09v-189.4c0-28.17-22.92-51.08-51.09-51.08h-625.85Z"/>
    </g>
    <g>
      <path d="M3416.77,904.99c-2.38,0-4.68-1.25-5.91-3.48-1.81-3.26-.63-7.38,2.63-9.19,10.17-5.64,20.72-10.33,31.34-13.92,57.33-19.49,107.51-5.16,132.33,5.12,11.49,4.7,18.14,8.8,18.41,8.97,3.17,1.97,4.14,6.14,2.17,9.31-1.97,3.17-6.14,4.14-9.3,2.17-.24-.15-6.22-3.78-16.43-7.95-23.09-9.56-69.7-22.88-122.84-4.82-9.86,3.33-19.66,7.69-29.12,12.94-1.04.58-2.16.85-3.27.85Z"/>
      <g>
        <path class="st8" d="M3426.54,787.78c0,37.03,7.7,70.9,20.45,97.03,24.14-8.2,46.94-10.18,67.03-8.96,25.59,1.49,46.76,8.2,60.54,13.92,14.19-26.71,22.88-62.57,22.88-101.99,0-82.66-38.25-118.11-85.45-118.11-35.81,0-66.53,20.45-79.24,66.53-4.01,14.55-6.22,31.71-6.22,51.58Z"/>
        <path d="M3574.56,896.52c-.86,0-1.74-.17-2.59-.51-12.81-5.32-33.34-11.97-58.35-13.42-22.02-1.32-43.7,1.57-64.46,8.62-3.23,1.09-6.75-.38-8.24-3.44-13.63-27.93-21.14-63.44-21.14-100,0-19.86,2.17-37.81,6.46-53.37,12.53-45.44,43.78-71.5,85.75-71.5,21.63,0,92.21,9.01,92.21,124.87,0,39.06-8.41,76.41-23.67,105.16-1.21,2.27-3.54,3.59-5.97,3.59ZM3503.22,868.76c3.73,0,7.47.11,11.21.34,23.35,1.35,43.08,6.92,56.88,12.12,12.52-26.06,19.38-58.97,19.38-93.44,0-70.77-28.69-111.35-78.7-111.35-35.95,0-61.78,21.87-72.72,61.57-3.96,14.39-5.97,31.14-5.97,49.78,0,32.25,6.12,63.51,17.31,88.77,17.1-5.18,34.73-7.79,52.61-7.79Z"/>
      </g>
      <path d="M3531.04,814.65c0,23.6-6.44,45.09-17.03,61.22-20.09-1.22-42.88.77-67.03,8.96-12.75-26.13-20.45-60-20.45-97.03,0-19.87,2.21-37.03,6.22-51.58,9.69-7.88,20.95-12.43,32.97-12.43,23.78,0,44.6,17.7,56.04,44.15l-42.97,26.53,51.58,7.12c.45,4.28.68,8.6.68,13.06Z"/>
    </g>
    <path d="M3122.19,904.99c-2.38,0-4.68-1.25-5.91-3.48-1.81-3.26-.63-7.37,2.63-9.19,10.17-5.64,20.71-10.33,31.34-13.92,57.32-19.49,107.5-5.16,132.32,5.12,11.49,4.7,18.14,8.8,18.41,8.97,3.17,1.97,4.14,6.14,2.17,9.3-1.97,3.17-6.14,4.14-9.3,2.18h0c-.06-.04-6.06-3.72-16.43-7.96-23.08-9.55-69.69-22.88-122.84-4.82-9.87,3.33-19.66,7.69-29.12,12.94-1.04.58-2.16.85-3.27.85Z"/>
    <g>
      <path class="st8" d="M3131.95,787.78c0,37.03,7.7,70.9,20.45,97.03,24.15-8.2,46.94-10.18,67.03-8.96,25.59,1.49,46.76,8.2,60.54,13.92,14.19-26.71,22.88-62.57,22.88-101.99,0-82.66-38.25-118.11-85.45-118.11-35.81,0-66.53,20.45-79.24,66.53-4.01,14.55-6.22,31.71-6.22,51.58Z"/>
      <path d="M3279.97,896.52c-.86,0-1.74-.17-2.59-.51-12.81-5.32-33.33-11.97-58.34-13.42-22.01-1.32-43.7,1.57-64.46,8.61-3.22,1.11-6.76-.38-8.24-3.43-13.63-27.93-21.14-63.44-21.14-100,0-19.86,2.17-37.81,6.46-53.37,12.53-45.44,43.78-71.5,85.75-71.5,21.63,0,92.21,9.01,92.21,124.87,0,39.07-8.41,76.42-23.68,105.16-1.21,2.27-3.54,3.59-5.97,3.59ZM3208.63,868.76c3.73,0,7.47.11,11.22.34,23.35,1.35,43.08,6.92,56.88,12.12,12.52-26.05,19.37-58.96,19.37-93.44,0-70.77-28.68-111.35-78.7-111.35-35.95,0-61.78,21.87-72.72,61.57-3.96,14.39-5.97,31.14-5.97,49.78,0,32.25,6.12,63.51,17.31,88.77,17.1-5.18,34.73-7.79,52.61-7.79Z"/>
    </g>
    <path d="M3236.48,814.65c0,23.6-6.44,45.09-17.03,61.22-20.09-1.22-42.88.77-67.03,8.96-12.75-26.13-20.45-60-20.45-97.03,0-19.87,2.21-37.03,6.22-51.58,9.69-7.88,20.95-12.43,32.97-12.43,23.78,0,44.6,17.7,56.04,44.15l-42.97,26.53,51.58,7.12c.45,4.28.68,8.6.68,13.06Z"/>
    <path d="M3236.46,949.97c-3.66,0-6.66-2.92-6.75-6.6-.08-3.72,2.85-6.8,6.55-6.91,1.03-.04,23.28-1.28,31.22-29.54,1.02-3.59,4.76-5.67,8.34-4.68,3.59,1.01,5.68,4.74,4.68,8.34-8.59,30.55-32.46,39.13-43.87,39.39h-.16Z"/>
    <path d="M3478.8,949.97h-.16c-11.42-.27-35.29-8.84-43.88-39.39-1.01-3.59,1.09-7.32,4.68-8.34,3.59-1,7.32,1.09,8.34,4.68,7.96,28.32,30.28,29.5,31.23,29.54,3.71.15,6.63,3.25,6.52,6.96-.11,3.66-3.08,6.55-6.72,6.55Z"/>
    <g>
      <path d="M3444.86,918.39c-15.99,37.48-32.66,60.63-49.06,73.52-27.66,21.76-54.55,14.32-76.35-2.75-26.89-21.08-45.99-56.89-49.06-70.77,0,0,86.04,55.72,174.47,0Z"/>
      <path d="M3360.35,1012.19c-14.83,0-29.99-5.91-45.06-17.71-29.55-23.16-48.39-60.62-51.49-74.62-.59-2.67.49-5.44,2.74-7,2.24-1.56,5.23-1.62,7.52-.13.83.53,83.62,52.63,167.2-.04,2.5-1.57,5.73-1.34,7.98.58,2.25,1.92,2.99,5.08,1.83,7.8-15.34,35.96-32.54,61.59-51.1,76.17-12.69,9.98-26.02,14.97-39.63,14.97ZM3283.19,932.6c7.93,15.79,22.47,37.16,40.44,51.24,23.77,18.63,46.66,19.55,68,2.76,13.53-10.63,26.45-28.22,38.53-52.42-61.41,29.03-119.54,10.74-146.97-1.58Z"/>
    </g>
    <g>
      <path class="st8" d="M3395.81,991.91c-27.66,21.76-54.55,14.32-76.35-2.75,27.66-21.76,54.55-14.32,76.35,2.75Z"/>
      <path d="M3360.35,1012.19c-14.83,0-29.99-5.91-45.06-17.71-1.63-1.28-2.59-3.24-2.59-5.31s.95-4.04,2.58-5.32c26.5-20.84,55.79-19.9,84.7,2.74,1.63,1.28,2.59,3.24,2.59,5.31,0,2.08-.95,4.04-2.58,5.32-12.69,9.98-26.02,14.97-39.64,14.97ZM3331.28,989.24c18.24,11.46,35.91,12.31,52.69,2.57-18.24-11.45-35.9-12.31-52.69-2.57Z"/>
    </g>
  </g>
  <g>
    <path d="M2212.53,792.73c-1.24,3-2.73,6.02-4.17,9.02-3.28,6.57-7.16,13.16-12.06,19.65-4.93,6.44-10.97,12.92-19.21,18.28-8.11,5.36-18.96,9.11-29.66,9.1-10.72.07-20.28-3.01-28.02-6.85-2.11-.9-3.76-2.01-5.63-3.05-1.85-1.04-3.64-2.12-5.22-3.28l-4.89-3.45-4.46-3.62c-3.08-2.39-5.53-4.98-8.31-7.48-2.61-2.55-5.01-5.16-7.52-7.75-9.56-10.48-17.63-21.39-25.17-32.46-2.14-3.08-4.2-6.18-6.16-9.31-3.5-5.37-4.38-11.58-3.05-17.15,1.3-5.57,4.78-10.49,10.03-13.55,5.26-3.07,11.27-3.75,16.69-2.49,5.4,1.3,10.23,4.5,13.38,9.33,1.79,2.86,3.64,5.65,5.53,8.37,6.69,9.85,13.75,19.31,21.28,27.54,7.44,8.14,15.67,15.22,22.78,18.72,3.55,1.81,6.47,2.45,8.46,2.41,2-.07,3.61-.53,6.07-2.07,2.4-1.53,5.27-4.3,7.99-7.9,2.73-3.61,5.37-7.94,7.73-12.69,1.05-2.22,2.15-4.39,3.11-6.74,2.12-4.81,6.04-8.61,11.06-10.83,4.93-2.25,10.93-2.92,16.75-1.13,5.81,1.79,10.31,5.81,12.76,11.14,2.36,5.3,2.68,11.92-.09,18.26Z"/>
    <g>
      <polygon class="st6" points="2548.37 747.98 2655.78 855.39 2505.59 1005.58 2434.69 1005.58 2362.71 933.61 2290.74 1005.58 2219.84 1005.58 2196.38 911.21 2140.59 855.39 2183.99 811.99 2204.53 704.49 2140.59 640.51 2218.58 562.48 2219.84 490.32 2290.74 490.32 2398.18 597.77 2434.69 490.32 2505.59 490.32 2655.78 640.51 2548.37 747.98"/>
      <path d="M2505.59,1010.28h-70.91c-1.25,0-2.44-.5-3.33-1.38l-68.65-68.65-68.65,68.65c-.88.88-2.08,1.38-3.33,1.38h-70.9c-2.16,0-4.04-1.47-4.57-3.57l-23.14-93.1-54.87-54.9c-1.84-1.84-1.84-4.81,0-6.65l42.38-42.38,19.8-103.64-62.19-62.21c-1.84-1.84-1.84-4.81,0-6.65l76.65-76.68,1.22-70.26c.05-2.57,2.14-4.62,4.7-4.62h70.9c1.25,0,2.44.5,3.33,1.38l102.1,102.09,34.07-100.28c.65-1.91,2.44-3.19,4.45-3.19h70.91c1.25,0,2.44.5,3.33,1.38l150.18,150.19c1.84,1.84,1.84,4.81,0,6.65l-104.08,104.14,104.08,104.09c1.84,1.84,1.84,4.81,0,6.65l-150.18,150.19c-.88.88-2.08,1.38-3.33,1.38ZM2436.63,1000.88h67.01l145.48-145.48-104.08-104.08c-1.84-1.84-1.84-4.81,0-6.65l104.08-104.14-145.48-145.48h-65.59l-35.42,104.25c-.52,1.54-1.8,2.7-3.38,3.07-1.59.37-3.25-.11-4.39-1.26l-106.07-106.06h-64.33l-1.18,67.54c-.02,1.22-.51,2.38-1.38,3.24l-74.67,74.7,60.62,60.65c1.1,1.1,1.59,2.68,1.3,4.21l-20.54,107.5c-.18.93-.63,1.78-1.3,2.44l-40.08,40.08,52.46,52.5c.61.6,1.03,1.36,1.24,2.19l22.57,90.8h65.28l70.59-70.59c1.84-1.84,4.81-1.84,6.65,0l70.59,70.59Z"/>
    </g>
    <path d="M2532.72,927.13l7.87,2.16c15.68,4.11,31.47,7.2,46.91,8.27,15.41,1.09,30.46.04,43.65-3.82l2.5-.68,2.33-.91c1.54-.62,3.14-1.16,4.66-1.8,2.85-1.52,5.88-2.79,8.41-4.63,5.26-3.41,9.94-7.4,13.5-12.28,7.23-9.58,11.35-21.99,11.34-35.25.05-13.16-3.54-26.87-10.21-38l-2.64-4.01c-.89-1.32-1.95-2.46-2.88-3.72-.41-.59-1.07-1.28-1.76-1.99l-2-2.08-3.98-4.18-3.97-4.19-4.33-3.78-4.32-3.79c-1.45-1.26-2.83-2.6-4.42-3.65-24.09-18.84-53.49-30.71-84.08-34.85-3.11-.39-6.24-.69-9.35-.98-10.58-.84-18.99-10.12-20.34-22.19-.68-6.03,1.83-11.83,6.17-15.86,4.39-4.1,10.71-6.37,17.52-5.9,3.92.36,7.84.74,11.73,1.23,37.98,5.08,74.96,19.94,105.47,43.81,2,1.37,3.76,3.02,5.59,4.59l5.44,4.76,5.42,4.79,4.99,5.21,4.97,5.22,2.48,2.62c.82.85,1.65,1.72,2.53,2.88,1.7,2.17,3.52,4.29,5.07,6.54,1.51,2.27,3.05,4.53,4.49,6.83,11.07,18.64,16.52,39.62,16.49,61.03.01,21.33-6.68,43.67-20.41,61.69-6.74,9.06-15.39,16.59-24.61,22.54-4.58,3.15-9.47,5.42-14.33,7.84-2.46,1.05-4.95,1.96-7.43,2.92l-3.73,1.4-3.75,1.07c-20.09,5.85-40.14,6.85-59.2,5.55-19.11-1.34-37.42-4.99-55.2-9.64l-8.87-2.44c-6.24-1.69-10.92-6.04-13.63-11.03-2.68-5.06-3.25-11.04-1.24-16.78,4.11-11.53,16.24-17.75,27.14-14.51Z"/>
    <g>
      <g>
        <path class="st8" d="M2082.36,708.6s-31.23-41.51-66.23-75.81c-18.41-18.04-38.37-42.32-53.81-50.42-42.66-22.37-59.28,37.03,1.53,77.28-32.13,14.48-20.67,42.28-20.67,42.28,0,0-39.06,20.76-7.8,44.76,37.62,28.89,87.6,30.21,103.33,16.9,15.73-13.31,43.66-54.99,43.66-54.99Z"/>
        <path d="M2007.89,776.47c-23.25,0-52.26-8.29-75.39-26.05-9.95-7.64-14.62-16.01-13.88-24.88,1.05-12.56,13.05-21.88,19.03-25.77-1.94-8.26-3.71-27.64,17.24-40.69-32.79-24.63-41.94-56.47-31.33-74.43,9.3-15.73,27.87-13.31,40.94-6.45,11.69,6.13,24.92,20.04,38.92,34.77,5.3,5.57,10.77,11.33,16,16.46,34.85,34.15,66.38,75.92,66.7,76.34,1.2,1.6,1.26,3.79.15,5.45-1.15,1.72-28.48,42.38-44.53,55.96-7.21,6.1-19.42,9.3-33.85,9.3ZM1944.96,582.18c-5.81,0-10.45,2.44-13.3,7.26-7.41,12.54-1.48,42.28,34.79,66.28,1.43.95,2.23,2.59,2.09,4.3-.14,1.71-1.19,3.2-2.76,3.91-27.66,12.46-18.65,35.24-18.26,36.2.92,2.24,0,4.81-2.14,5.95-4.57,2.45-16.62,10.86-17.39,20.26-.45,5.46,3,11.05,10.24,16.62,16.38,12.58,36.83,20.87,57.56,23.34,17.26,2.05,32.91-.42,39.86-6.3,12.74-10.79,34.4-41.76,40.9-51.23-7.47-9.68-34.43-43.9-63.72-72.61-5.35-5.24-10.89-11.07-16.24-16.7-12.86-13.53-26.15-27.51-36.47-32.92-5.56-2.91-10.71-4.36-15.17-4.36Z"/>
      </g>
      <g>
        <path class="st8" d="M2073.55,700.55c-.29-64.97-32.03-88.58-58.62-54.87-6.69,8.49-.52,26.98,6.27,34.67"/>
        <path d="M2073.55,705.25c-2.59,0-4.69-2.09-4.7-4.68-.19-41.66-13.11-60.87-24.12-64.66-8.16-2.81-17.44,1.69-26.11,12.69-4.83,6.12.39,22.18,6.1,28.64,1.72,1.95,1.54,4.92-.41,6.64-1.95,1.72-4.92,1.53-6.64-.41-8.11-9.17-14.81-30.09-6.44-40.7,15.29-19.39,29.46-18.2,36.55-15.75,18.62,6.41,30.29,34.58,30.47,73.52.01,2.6-2.09,4.71-4.68,4.73h-.02Z"/>
      </g>
      <g>
        <path class="st8" d="M2033.39,730.86c-36.33,45.75-13.15,64.15,3.1,69.31,16.25,5.15,18.25-11.39,38.5-36.28,21.76-26.75,37.59-36.87,23.87-50.8-15.14-15.38-32.44-23.82-65.46,17.78Z"/>
        <path d="M2042.08,805.85c-2.11,0-4.43-.38-7-1.2-5.82-1.84-19.82-7.72-24.31-22.41-4.45-14.59,1.92-32.86,18.95-54.31h0c16.85-21.22,30.91-31.43,44.25-32.14,12.07-.62,21.09,6.71,28.25,13.99,13.92,14.14,3.47,25.98-10.99,42.38-3.78,4.29-8.07,9.15-12.57,14.69-6.13,7.53-10.64,14.42-14.26,19.96-7.03,10.74-12.45,19.03-22.3,19.03ZM2037.08,733.78c-14.78,18.61-20.76,34.41-17.32,45.71,3.19,10.43,13.76,14.8,18.15,16.19,7.19,2.28,9.58-.23,18.59-14.02,3.74-5.72,8.4-12.84,14.83-20.75,4.63-5.69,8.98-10.62,12.82-14.98,15.98-18.12,18.49-22.3,11.35-29.56-8.08-8.2-14.39-11.54-21.05-11.19-10.17.54-22.75,10.16-37.38,28.6h0Z"/>
      </g>
      <g>
        <path class="st8" d="M1928.44,740.15c48.95,26.8,80.79-4.96,57.54-23.37"/>
        <path d="M1964.23,755.09c-11.08,0-24.13-3.2-38.05-10.82-2.28-1.25-3.11-4.11-1.86-6.39,1.25-2.28,4.1-3.11,6.39-1.87,28.72,15.72,50.32,9.69,56.5.38,3.5-5.28,1.99-11.09-4.13-15.95-2.04-1.61-2.38-4.57-.77-6.61,1.61-2.04,4.58-2.38,6.61-.77,9.97,7.9,12.38,19.1,6.13,28.52-5.37,8.11-16.44,13.49-30.81,13.49Z"/>
      </g>
      <g>
        <path class="st8" d="M1945.56,704.8c23.78,20.8,59.98,12.54,62.07-3.87,2.09-16.41-10.23-25.55-10.23-25.55"/>
        <path d="M1978.69,721.91c-11.87,0-25.13-3.86-36.23-13.56-1.96-1.71-2.16-4.68-.44-6.64,1.7-1.95,4.68-2.16,6.64-.44,13.99,12.23,32.59,13.17,43.96,8.85,5.99-2.28,9.86-5.93,10.35-9.77,1.7-13.35-7.97-20.88-8.39-21.2-2.06-1.57-2.47-4.51-.92-6.58,1.56-2.07,4.47-2.5,6.55-.96.59.44,14.49,11,12.09,29.92-.95,7.46-6.91,13.8-16.34,17.38-4.99,1.9-10.93,3-17.26,3Z"/>
      </g>
    </g>
    <g>
      <polygon class="st7" points="2477.46 747.97 2584.87 855.38 2434.69 1005.56 2327.28 898.12 2219.83 1005.56 2069.68 855.38 2177.09 747.97 2069.68 640.53 2219.83 490.34 2327.28 597.78 2434.69 490.34 2584.87 640.53 2477.46 747.97"/>
      <path d="M2434.69,1010.26h0c-1.25,0-2.44-.5-3.33-1.38l-104.08-104.11-104.11,104.11c-.88.88-2.08,1.38-3.33,1.38h0c-1.25,0-2.44-.5-3.33-1.38l-150.15-150.18c-1.84-1.84-1.84-4.81,0-6.65l104.08-104.08-104.08-104.11c-1.84-1.84-1.84-4.81,0-6.65l150.15-150.19c1.76-1.76,4.89-1.76,6.65,0l104.11,104.11,104.08-104.11c1.76-1.76,4.88-1.77,6.65,0l150.18,150.19c1.84,1.84,1.84,4.81,0,6.65l-104.08,104.11,104.08,104.08c1.84,1.84,1.84,4.81,0,6.65l-150.18,150.18c-.88.88-2.08,1.38-3.33,1.38ZM2076.33,855.38l143.5,143.53,104.11-104.11c.88-.88,2.08-1.38,3.33-1.38h0c1.25,0,2.44.5,3.33,1.38l104.08,104.11,143.53-143.53-104.08-104.08c-1.84-1.84-1.84-4.81,0-6.65l104.08-104.11-143.53-143.53-104.08,104.11c-1.76,1.76-4.89,1.76-6.65,0l-104.11-104.11-143.5,143.53,104.08,104.11c1.84,1.84,1.84,4.82,0,6.65l-104.08,104.08Z"/>
    </g>
    <g>
      <path class="st8" d="M2186.78,735.84c0,24.3,8.52,45.97,21.77,60.12,10.12,10.73,22.96,17.15,36.87,17.15,32.43,0,58.68-34.59,58.68-77.27s-26.25-77.3-58.68-77.3c-13.91,0-26.75,6.43-36.87,17.15-13.25,14.17-21.77,35.85-21.77,60.15Z"/>
      <path d="M2245.42,817.82c-14.64,0-28.95-6.62-40.29-18.63-14.65-15.65-23.05-38.73-23.05-63.35s8.4-47.7,23.04-63.36c11.36-12.03,25.66-18.64,40.31-18.64,34.95,0,63.39,36.79,63.39,82.01s-28.44,81.98-63.39,81.98ZM2245.42,663.24c-12.2,0-23.77,5.42-33.45,15.68-13.01,13.92-20.49,34.68-20.49,56.92s7.47,42.99,20.5,56.9c9.67,10.24,21.24,15.67,33.44,15.67,29.76,0,53.98-32.56,53.98-72.57s-24.22-72.6-53.98-72.6Z"/>
    </g>
    <path d="M2186.78,735.84c0,24.3,8.52,45.97,21.77,60.12,2.3.44,4.69.69,7.12.69,23.21,0,42.38-22.49,45.68-51.81l-33.7-10.6,33.74-6.9c-3.13-29.57-22.39-52.34-45.72-52.34-2.43,0-4.81.25-7.12.69-13.25,14.17-21.77,35.85-21.77,60.15Z"/>
    <g>
      <path class="st8" d="M2360.14,735.84c0,24.3,8.52,45.97,21.77,60.12,10.12,10.73,22.96,17.15,36.87,17.15,32.43,0,58.68-34.59,58.68-77.27s-26.25-77.3-58.68-77.3c-13.91,0-26.75,6.43-36.87,17.15-13.25,14.17-21.77,35.85-21.77,60.15Z"/>
      <path d="M2418.78,817.82c-14.65,0-28.95-6.62-40.29-18.63-14.65-15.64-23.05-38.73-23.05-63.35s8.4-47.7,23.04-63.36c11.35-12.03,25.66-18.64,40.31-18.64,34.95,0,63.38,36.79,63.38,82.01s-28.43,81.98-63.38,81.98ZM2418.78,663.24c-12.2,0-23.77,5.42-33.45,15.68-13.01,13.92-20.49,34.67-20.49,56.92s7.47,43,20.5,56.9c9.67,10.24,21.23,15.67,33.44,15.67,29.76,0,53.97-32.56,53.97-72.57s-24.21-72.6-53.97-72.6Z"/>
    </g>
    <path d="M2360.14,735.84c0,24.3,8.52,45.97,21.77,60.12,2.3.44,4.69.69,7.12.69,23.21,0,42.38-22.49,45.68-51.81l-33.7-10.6,33.74-6.9c-3.13-29.57-22.39-52.34-45.72-52.34-2.43,0-4.81.25-7.12.69-13.25,14.17-21.77,35.85-21.77,60.15Z"/>
    <path d="M2231.64,852.84c-3.26,0-5.39-.49-5.78-.59-2.52-.63-4.05-3.19-3.42-5.71.62-2.51,3.18-4.03,5.67-3.43.82.19,18.97,4.04,31.59-20.32,1.19-2.31,4.04-3.21,6.34-2.02,2.31,1.19,3.21,4.03,2.02,6.34-8.33,16.09-19.17,22.11-26.79,24.33-3.71,1.08-7.03,1.39-9.62,1.39Z"/>
    <path d="M2400.56,838.92c-27.43,0-41.35-24.11-44.96-37.5-.68-2.51.81-5.09,3.32-5.77,2.51-.68,5.09.81,5.77,3.31.4,1.44,9.5,32.98,39.34,30.39,2.62-.2,4.87,1.69,5.1,4.27.23,2.59-1.68,4.87-4.27,5.1-1.46.13-2.9.19-4.29.19Z"/>
    <path d="M2311.65,862.24c-33.48,0-61.8-17.49-62.27-17.78-2.2-1.39-2.85-4.29-1.47-6.49,1.38-2.2,4.29-2.85,6.49-1.47.18.11,18.55,11.54,42.27,15.3,31.05,4.91,56.4-5.08,75.27-29.7,1.57-2.07,4.54-2.46,6.59-.87,2.06,1.58,2.45,4.53.87,6.59-20.3,26.48-45.2,34.43-67.75,34.43Z"/>
    <path d="M2313.9,885.29c-14.42,0-21.36-6.48-21.85-6.95-1.86-1.81-1.9-4.79-.09-6.65,1.79-1.84,4.74-1.9,6.6-.14.39.34,16.91,14.28,55.37-10.15,2.2-1.4,5.1-.74,6.49,1.45,1.39,2.19.75,5.1-1.45,6.49-19.45,12.36-34.33,15.95-45.07,15.95Z"/>
    <g>
      <g>
        <path class="st8" d="M2545.27,903.57h-.03c-9.86,3.56-20.05,14.85-30.76,39.76-8.61,20.08-10.25,34.28-7.96,44.25-21.11,7.46-52.86,8.9-82.49-3.26-3.37-1.39-6.15-2.91-8.41-4.51-22.36-15.8,4.21-40.73,4.21-40.73,0,0-18.37-23.83,8.85-46.24-69.23-22.88-68.76-84.56-21.74-74.17,17.04,3.75,42.66,21.98,65.15,34.55,2.3,1.29,4.6,2.58,6.88,3.92,17.89-27.35,49.25-11.53,65.37,43.24.32,1.05.64,2.1.93,3.19Z"/>
        <path d="M2470.3,998.02c-15.01,0-31.62-2.6-48.06-9.35-3.6-1.49-6.73-3.18-9.34-5.02-6.73-4.76-10.39-10.75-10.88-17.81-.8-11.5,7.47-22.42,11.91-27.39-4.04-7.46-10.84-25.71,5.95-43.8-38.09-15.16-55.28-43.49-49.74-63.6,4.85-17.62,23.39-20.15,37.81-16.97,12.89,2.84,29.28,12.79,46.63,23.33,6.58,4,13.4,8.13,19.81,11.71,1.12.63,2.2,1.24,3.26,1.84,7.03-8.77,15.99-12.78,25.52-11.38,18.45,2.72,35.53,24.96,45.69,59.47.32,1.06.65,2.15.96,3.28.67,2.46-.74,5.01-3.19,5.74h-.03c-9.22,3.34-18.65,15.85-27.79,37.11-7.43,17.32-10.02,31.23-7.7,41.34.54,2.33-.76,4.69-3.02,5.48-9.97,3.52-23.12,6.01-37.78,6.01ZM2396.93,822.2c-9.29,0-15.7,3.97-17.72,11.34-3.86,14.04,9.66,41.18,50.94,54.83,1.63.54,2.83,1.92,3.15,3.6.32,1.68-.31,3.41-1.64,4.5-22.86,18.82-9.68,37.67-8.1,39.76,1.45,1.92,1.23,4.64-.52,6.28-3.45,3.26-12.28,13.7-11.64,22.7.29,4.15,2.56,7.67,6.93,10.75,2.04,1.45,4.56,2.79,7.49,4.01,28.09,11.53,56.62,10,75.37,4.39-1.34-11.48,1.66-25.88,8.95-42.89,9.34-21.72,18.79-34.76,29.46-40.51-10.72-35.86-26.53-50.41-37.81-52.08-8.92-1.29-15.18,5.17-18.89,10.83-1.38,2.1-4.16,2.75-6.31,1.49-2.2-1.29-4.42-2.53-6.65-3.78-6.72-3.75-13.6-7.94-20.25-11.97-15.93-9.67-32.41-19.68-43.77-22.18-3.22-.71-6.24-1.06-8.99-1.06Z"/>
      </g>
      <g>
        <path class="st8" d="M2563.26,964.29c-13.02,29.34-10.59,45.81-27.65,45.11-10.65-.45-25.29-5.18-29.1-21.83-2.29-9.97-.65-24.16,7.96-44.25,10.72-24.91,20.91-36.2,30.76-39.75h.03c.79-.32,1.6-.57,2.44-.73,8.57-2.07,16.93,1.31,25.27,6.17,16.91,9.87,4.28,23.76-9.71,55.28Z"/>
        <path d="M2536.67,1014.13c-.41,0-.82,0-1.25-.02-17.5-.74-30.01-10.27-33.49-25.48-2.77-12.1,0-27.96,8.22-47.16,10.5-24.42,21.15-37.87,33.49-42.32,1.02-.4,2.09-.72,3.16-.93,10.55-2.54,20.35,1.96,28.53,6.72,17.15,10.01,10.18,24.17.52,43.77-2.53,5.13-5.4,10.95-8.3,17.49h0c-3.94,8.88-6.48,16.71-8.53,23-4.68,14.41-8.09,24.93-22.36,24.93ZM2552.96,906.92c-1.43,0-2.81.17-4.15.49-.71.14-1.24.3-1.82.53-.12.05-.25.09-.37.13-9.25,3.34-18.68,15.85-27.82,37.11-7.43,17.32-10.02,31.23-7.7,41.34,3.57,15.61,18.47,17.91,24.71,18.18,7.6.36,9.19-2.74,14.27-18.4,2.11-6.5,4.74-14.59,8.88-23.92h0c2.98-6.71,5.89-12.62,8.46-17.83,10.67-21.66,11.99-26.35,3.19-31.48-7.2-4.19-12.73-6.15-17.64-6.15Z"/>
      </g>
    </g>
  </g>
  <g>
    <path d="M1703.51,604.09l-1.01.7-.96.9-1.94,1.77c-4.32,4.22-8.37,9.63-12.09,15.64-3.7,6.06-7.03,12.82-10.22,19.75-6.31,14.03-11.86,29.13-17.79,44.58-2.99,7.73-6.04,15.54-9.48,23.43-3.38,7.87-7.12,15.82-11.58,23.74-2.13,3.96-4.7,7.9-7.22,11.82l-4.25,5.81c-1.37,1.94-3.15,3.8-4.72,5.69-6.6,7.44-14.86,14.51-24.89,19.4l-5.55,2.42c-1.83.85-3.84,1.23-5.76,1.84-1.68.46-3.35.82-4.98.93-1.64,0-3.23-.13-4.73-.4-1.5-.26-2.92-.66-4.23-1.16-1.3-.52-2.45-1.35-3.5-2.14-4.2-3.31-6.13-7.93-5.79-13,.34-5.07,2.53-9.71,5-13.03.62-.86,1.3-1.52,1.94-2.28.64-.77,1.3-1.45,1.97-2.01.68-.56,1.38-1.01,2.12-1.33.7-.42,1.4-.82,2.18-1.02.88-.31,1.85-.35,2.67-.82.85-.4,1.7-.78,2.57-1.13,9.32-4.54,18.06-14.74,25.04-27.62,3.57-6.33,6.83-13.19,9.89-20.34,3.1-7.1,6-14.52,8.91-22.04,5.8-15.07,11.51-30.7,18.6-46.51,3.64-7.91,7.52-15.86,12.34-23.76,4.88-7.87,10.56-15.75,17.94-22.96l3.42-3.12,1.72-1.54,1.92-1.43c2.73-1.97,5.53-3.53,8.65-4.06,3.07-.56,5.83-.78,8.52.08,5.3,1.5,8.76,5.14,10.22,10,1.46,4.86,1.08,9.99.16,13.89-.53,1.83-1.03,3.96-1.89,5.4-.87,1.38-1.82,2.95-3.24,3.91Z"/>
    <g>
      <rect class="st11" x="1273.9" y="537.22" width="131.79" height="431.48" rx="10.36" ry="10.36" transform="translate(2092.76 -586.83) rotate(90)"/>
      <path d="M1538.03,822.79h-396.47c-11.82,0-21.44-9.61-21.44-21.43v-96.79c0-11.82,9.62-21.43,21.44-21.43h396.47c11.82,0,21.43,9.62,21.43,21.43v96.79c0,11.82-9.61,21.43-21.43,21.43ZM1141.56,691c-7.48,0-13.57,6.09-13.57,13.57v96.79c0,7.48,6.09,13.57,13.57,13.57h396.47c7.48,0,13.57-6.09,13.57-13.57v-96.79c0-7.48-6.09-13.57-13.57-13.57h-396.47Z"/>
    </g>
    <g>
      <path class="st11" d="M1425.16,574.91c0,29.12-14.6,54.86-36.88,70.25v15.1h-54.18v-.21c-44.48-2.91-79.66-39.92-79.66-85.14s38.22-85.34,85.34-85.34h48.49v15.1c22.28,15.39,36.88,41.13,36.88,70.25Z"/>
      <path d="M1388.28,664.18h-54.18c-.55,0-1.06-.11-1.54-.31-46.11-3.68-82.05-42.51-82.05-88.97,0-49.23,40.05-89.28,89.28-89.28h48.49c2.17,0,3.93,1.76,3.93,3.93v13.07c23.13,16.78,36.88,43.64,36.88,72.28s-13.75,55.5-36.88,72.28v13.06c0,2.17-1.76,3.93-3.93,3.93ZM1335.37,656.32h48.98v-11.17c0-1.29.63-2.5,1.7-3.24,22.03-15.21,35.18-40.27,35.18-67.01s-13.15-51.8-35.18-67.01c-1.06-.73-1.7-1.94-1.7-3.24v-11.17h-44.56c-44.89,0-81.41,36.52-81.41,81.41s33.37,78.42,75.98,81.21c.35.02.69.09,1.01.2Z"/>
    </g>
    <path d="M1073.35,929.51c-2.26-1.74-4.68-3.29-6.78-5.23-8.39-6.9-15.79-14.96-21.97-23.88-6.2-8.91-11.25-18.66-14.85-29.04-3.6-10.38-5.74-21.42-5.98-32.71-.25-11.28,1.47-22.83,5.38-33.74,3.9-10.91,10.05-21.01,17.61-29.51,7.57-8.51,16.4-15.57,25.76-21.1,18.84-10.88,39.1-16.5,58.92-19.46l9.54-1.09c5.5-.75,10.58,1.27,14.24,4.34,3.67,3.14,5.9,7.62,6.03,12.71.14,5.08-1.76,9.8-4.74,13.31-2.98,3.57-7.14,5.63-11.73,6.28l-8.07.91c-16.54,2.44-32.34,7.15-45.47,14.72-12.95,7.74-22.81,18.41-27.43,31.35-4.64,12.9-4.16,27.92.75,41.94,4.9,14,13.84,27.09,25.55,36.64,1.44,1.38,3.16,2.39,4.71,3.62,1.62,1.32,3.07,2.68,4.12,4.47.53.88.98,1.84,1.35,2.86.4.96.74,1.97.99,3.04.98,4.26.77,9.35-1.37,13.96-2.14,4.61-6.01,7.8-10.95,8.99-1.23.3-2.52.48-3.85.52-1.29-.02-2.61-.17-3.95-.45-2.66-.59-5.45-1.6-7.82-3.45Z"/>
    <g>
      <path class="st11" d="M1425.16,921.52c0,29.12-14.6,54.86-36.88,70.25v15.1h-54.18v-.21c-44.48-2.91-79.66-39.92-79.66-85.14s38.22-85.34,85.34-85.34h48.49v15.1c22.28,15.39,36.88,41.13,36.88,70.25Z"/>
      <path d="M1388.28,1010.79h-54.18c-.55,0-1.06-.11-1.54-.31-46.11-3.68-82.05-42.51-82.05-88.96,0-49.23,40.05-89.28,89.28-89.28h48.49c2.17,0,3.93,1.76,3.93,3.93v13.06c23.13,16.78,36.88,43.64,36.88,72.28s-13.75,55.5-36.88,72.28v13.06c0,2.17-1.76,3.93-3.93,3.93ZM1335.37,1002.93h48.98v-11.17c0-1.29.63-2.5,1.7-3.24,22.03-15.22,35.18-40.26,35.18-67.01s-13.15-51.8-35.18-67.01c-1.06-.73-1.7-1.94-1.7-3.24v-11.17h-44.56c-44.89,0-81.41,36.52-81.41,81.41s33.37,78.42,75.98,81.21c.35.02.69.09,1.01.2Z"/>
    </g>
    <g>
      <g>
        <path class="st8" d="M1700.21,549.8s41.45-12.91,81.94-19.09c21.29-3.25,46.69-9.98,61.13-7.93,39.86,5.66,22.13,54.07-38.77,51.68,14.73,25.51-6.62,38.78-6.62,38.78,0,0,16.36,33.15-16.56,34.17-39.63,1.23-74.17-22.28-78.34-38.99-4.17-16.71-2.77-58.62-2.77-58.62Z"/>
        <path d="M1778.43,651.38c-38.37,0-74.4-22.51-79.27-42.01-4.25-17.05-2.94-57.97-2.88-59.7.06-1.67,1.16-3.12,2.76-3.62.42-.13,42.2-13.07,82.52-19.22,6.06-.92,12.58-2.16,18.9-3.35,16.69-3.15,32.44-6.13,43.38-4.58,12.22,1.73,26,9.16,24.62,24.37-1.57,17.36-23.33,34.5-57.59,35.19,7.84,19.07-2.83,31.36-8.17,36.02,2.16,5.56,5.75,17.74.33,26.77-3.82,6.37-11.08,9.77-21.56,10.1-1.01.03-2.01.05-3.02.05ZM1704.06,552.74c-.22,9.6-.65,41.19,2.73,54.73,3.73,14.96,37.45,37.21,74.41,36.01,7.63-.24,12.7-2.35,15.06-6.27,4.07-6.75,0-18.34-1.9-22.24-.89-1.81-.26-4.01,1.45-5.07,1.83-1.16,17.66-12.05,5.29-33.47-.72-1.24-.7-2.77.04-4,.74-1.23,2.11-1.95,3.52-1.9,21.49.84,54.11-7.47,55.96-27.98.74-8.24-5.95-14.18-17.9-15.88-9.61-1.37-25.48,1.63-40.81,4.52-6.38,1.21-12.98,2.45-19.17,3.4-33.91,5.17-68.88,15.22-78.68,18.14Z"/>
      </g>
      <g>
        <path class="st8" d="M1710.12,548.64c31.92-43.93,64.98-44.45,66.56-8.6.4,9.03-12.82,18.56-21.18,20.46"/>
        <path d="M1755.49,564.43c-1.8,0-3.42-1.24-3.83-3.06-.48-2.12.85-4.22,2.97-4.7,7.03-1.59,18.41-9.94,18.12-16.45-.51-11.69-4.6-19.27-11.51-21.35-9.32-2.81-27.47,3.92-47.94,32.09-1.28,1.75-3.73,2.14-5.49.87-1.76-1.28-2.15-3.73-.87-5.49,19.13-26.33,40.8-39.73,56.56-35,6,1.8,16.2,7.91,17.11,28.54.49,11.29-14.27,22.2-24.25,24.46-.29.07-.58.1-.87.1Z"/>
      </g>
      <g>
        <path class="st8" d="M1722.56,588.8c2.3,48.78-22.4,49.94-35.94,45.5-13.54-4.44-6.82-16.63-8.4-43.41-1.7-28.77-7.5-43.36,8.61-46.12,17.78-3.04,33.63-.32,35.73,44.02Z"/>
        <path d="M1696.7,639.89c-4.81,0-8.95-1.07-11.31-1.85-12.18-3.99-11.76-13.39-11.18-26.41.25-5.53.56-12.4.08-20.51-.35-5.96-.89-11.35-1.36-16.11-1.8-18.19-3.11-31.32,13.24-34.12,8.42-1.44,18.09-2.05,25.99,4.31,8.7,7,13.25,20.79,14.32,43.41h0c1.08,22.86-3.52,38.37-13.66,46.09-5.24,3.99-11.05,5.18-16.12,5.18ZM1695.74,547.85c-2.41,0-5.14.27-8.25.8-8.39,1.43-8.73,5.5-6.74,25.59.48,4.83,1.02,10.3,1.38,16.42.5,8.51.19,15.61-.07,21.32-.61,13.76-.22,16.62,5.77,18.58,3.67,1.2,12.97,3.4,20.22-2.12,7.85-5.98,11.51-19.62,10.57-39.46h0c-.93-19.65-4.76-32.32-11.4-37.65-2.93-2.35-6.55-3.49-11.49-3.49Z"/>
      </g>
      <g>
        <path class="st8" d="M1789.22,646.35c-46.29-5.72-52.38-42.81-27.62-43.95"/>
        <path d="M1789.22,650.28c-.16,0-.32,0-.49-.03-30.23-3.74-45.96-21.04-45.41-35.43.36-9.44,7.46-15.86,18.08-16.35,2.15-.08,4.01,1.58,4.11,3.75.1,2.17-1.58,4.01-3.74,4.11-6.53.3-10.39,3.51-10.59,8.8-.36,9.33,11.35,23.97,38.51,27.33,2.16.27,3.69,2.23,3.42,4.38-.25,1.99-1.94,3.45-3.9,3.45Z"/>
      </g>
      <g>
        <path class="st8" d="M1794.86,614.02c-26.29,2.5-46.81-20.78-40.22-32.93,6.6-12.15,19.41-12.34,19.41-12.34"/>
        <path d="M1790.86,618.14c-16.82,0-30.55-9.28-37.08-19.15-4.65-7.04-5.6-14.25-2.6-19.77,7.61-14.01,22.19-14.38,22.81-14.39h.06c2.15,0,3.9,1.72,3.93,3.87.03,2.17-1.7,3.96-3.87,3.99-.41.01-10.65.4-16.01,10.28-1.55,2.85-.7,7.21,2.25,11.68,5.6,8.47,18.68,16.92,34.14,15.45,2.12-.21,4.08,1.38,4.29,3.54.2,2.16-1.38,4.08-3.54,4.28-1.48.14-2.93.21-4.37.21Z"/>
      </g>
    </g>
    <g>
      <rect class="st0" x="1322.38" y="537.22" width="131.79" height="431.48" rx="10.36" ry="10.36" transform="translate(2141.23 -635.31) rotate(90)"/>
      <path d="M1586.51,822.79h-396.47c-11.82,0-21.43-9.61-21.43-21.43v-96.79c0-11.82,9.61-21.43,21.43-21.43h396.47c11.82,0,21.44,9.62,21.44,21.43v96.79c0,11.82-9.62,21.43-21.44,21.43ZM1190.04,691c-7.48,0-13.57,6.09-13.57,13.57v96.79c0,7.48,6.09,13.57,13.57,13.57h396.47c7.48,0,13.57-6.09,13.57-13.57v-96.79c0-7.48-6.09-13.57-13.57-13.57h-396.47Z"/>
    </g>
    <g>
      <circle class="st0" cx="1388.27" cy="574.91" r="85.35" transform="translate(468.61 1763.2) rotate(-74.76)"/>
      <path d="M1388.27,664.19c-49.23,0-89.29-40.05-89.29-89.29s40.05-89.29,89.29-89.29,89.29,40.05,89.29,89.29-40.05,89.29-89.29,89.29ZM1388.27,493.48c-44.9,0-81.42,36.53-81.42,81.42s36.52,81.42,81.42,81.42,81.42-36.53,81.42-81.42-36.52-81.42-81.42-81.42Z"/>
    </g>
    <g>
      <circle class="st0" cx="1388.27" cy="921.52" r="85.35" transform="translate(-244.99 1251.56) rotate(-45)"/>
      <path d="M1388.27,1010.8c-49.23,0-89.29-40.05-89.29-89.29s40.05-89.29,89.29-89.29,89.29,40.05,89.29,89.29-40.05,89.29-89.29,89.29ZM1388.27,840.09c-44.9,0-81.42,36.52-81.42,81.42s36.52,81.42,81.42,81.42,81.42-36.52,81.42-81.42-36.52-81.42-81.42-81.42Z"/>
    </g>
    <g>
      <path d="M1535.69,790.01c-.65,0-1.3-.16-1.91-.49-5.49-3.05-11.19-5.58-16.94-7.53-30.93-10.51-58.05-2.76-71.47,2.79-6.05,2.48-9.55,4.62-9.58,4.64-1.85,1.14-4.27.57-5.41-1.27-1.14-1.84-.58-4.26,1.26-5.41.16-.1,4.03-2.49,10.73-5.23,14.42-5.97,43.63-14.31,76.98-2.97,6.19,2.09,12.33,4.82,18.23,8.1,1.9,1.05,2.58,3.45,1.53,5.35-.72,1.29-2.06,2.02-3.44,2.02Z"/>
      <g>
        <path class="st8" d="M1530.01,721.81c0,21.55-4.48,41.26-11.9,56.46-14.05-4.77-27.31-5.92-39-5.22-14.89.87-27.21,4.77-35.23,8.1-8.26-15.54-13.32-36.41-13.32-59.34,0-48.1,22.25-68.73,49.72-68.73,20.84,0,38.71,11.9,46.11,38.71,2.33,8.47,3.62,18.45,3.62,30.01Z"/>
        <path d="M1443.88,785.09c-1.42,0-2.77-.77-3.48-2.09-8.88-16.73-13.77-38.46-13.77-61.19,0-67.42,41.07-72.66,53.66-72.66,24.42,0,42.61,15.16,49.9,41.6,2.49,9.05,3.76,19.5,3.76,31.06,0,21.27-4.37,41.93-12.3,58.19-.87,1.78-2.92,2.64-4.8,2-12.08-4.1-24.72-5.77-37.5-5.01-14.56.85-26.5,4.71-33.96,7.81-.49.2-1,.3-1.51.3ZM1480.29,657.01c-29.1,0-45.79,23.62-45.79,64.79,0,20.06,3.99,39.21,11.28,54.37,8.03-3.02,19.51-6.26,33.11-7.05,12.62-.78,25.11.69,37.13,4.34,6.51-14.7,10.07-32.89,10.07-51.66,0-10.85-1.17-20.59-3.48-28.97-6.37-23.1-21.4-35.83-42.31-35.83Z"/>
      </g>
      <path d="M1469.2,737.44c0,13.73,3.75,26.24,9.91,35.62,11.69-.71,24.95.45,39,5.22,7.42-15.2,11.9-34.91,11.9-56.46,0-11.56-1.28-21.55-3.62-30.01-5.64-4.59-12.19-7.23-19.19-7.23-13.84,0-25.95,10.3-32.61,25.69l25.01,15.44-30.01,4.14c-.26,2.49-.39,5.01-.39,7.6Z"/>
    </g>
    <g>
      <path d="M1339.79,790.01c-.65,0-1.3-.16-1.91-.49-5.49-3.05-11.19-5.58-16.94-7.53-30.93-10.51-58.05-2.76-71.47,2.79-6.05,2.47-9.54,4.62-9.58,4.64-1.85,1.14-4.27.57-5.41-1.27-1.14-1.85-.58-4.26,1.26-5.41.16-.1,4.03-2.49,10.73-5.23,14.42-5.97,43.63-14.31,76.98-2.97,6.19,2.09,12.33,4.82,18.23,8.1,1.9,1.05,2.58,3.45,1.53,5.35-.72,1.29-2.06,2.02-3.44,2.02Z"/>
      <g>
        <path class="st8" d="M1334.11,721.81c0,21.55-4.48,41.26-11.9,56.46-14.05-4.77-27.31-5.92-39-5.22-14.89.87-27.21,4.77-35.23,8.1-8.26-15.54-13.32-36.41-13.32-59.34,0-48.1,22.25-68.73,49.72-68.73,20.84,0,38.71,11.9,46.11,38.71,2.33,8.47,3.62,18.45,3.62,30.01Z"/>
        <path d="M1247.98,785.09c-1.42,0-2.77-.77-3.48-2.09-8.88-16.72-13.77-38.45-13.77-61.19,0-67.42,41.07-72.66,53.65-72.66,24.42,0,42.61,15.16,49.9,41.6,2.49,9.05,3.76,19.5,3.76,31.06,0,21.27-4.37,41.93-12.3,58.19-.87,1.78-2.93,2.64-4.8,2-12.08-4.1-24.7-5.78-37.5-5.01-14.56.85-26.5,4.71-33.96,7.81-.49.2-1,.3-1.51.3ZM1284.38,657.01c-29.1,0-45.79,23.62-45.79,64.79,0,20.06,3.99,39.21,11.27,54.37,8.04-3.02,19.51-6.26,33.11-7.05,12.63-.77,25.11.7,37.13,4.34,6.51-14.7,10.07-32.89,10.07-51.66,0-10.85-1.17-20.59-3.48-28.97-6.37-23.1-21.4-35.83-42.31-35.83Z"/>
      </g>
      <path d="M1273.3,737.44c0,13.73,3.75,26.24,9.91,35.62,11.69-.71,24.95.45,39,5.22,7.42-15.2,11.9-34.91,11.9-56.46,0-11.56-1.28-21.55-3.62-30.01-5.64-4.59-12.19-7.23-19.19-7.23-13.84,0-25.95,10.3-32.61,25.69l25.01,15.44-30.01,4.14c-.26,2.49-.39,5.01-.39,7.6Z"/>
    </g>
    <path d="M1382.96,755.58c-19.3-3.05-17.31,32.51,0,34.62,17.31,2.11,16.04-32.09,0-34.62Z"/>
    <path d="M1388.42,805.31c-4.96,0-11.22-1.52-18.84-6.09-1.86-1.12-2.47-3.53-1.35-5.39,1.12-1.86,3.54-2.47,5.39-1.35,8.09,4.85,15.1,6.2,20.28,3.87,4.37-1.96,6.61-6.21,7.19-9.25.4-2.14,2.48-3.52,4.6-3.13,2.13.41,3.53,2.47,3.13,4.6-.98,5.14-4.57,11.77-11.7,14.96-2.23,1-5.12,1.79-8.7,1.79Z"/>
    <g>
      <g>
        <path class="st8" d="M1123.9,891.29c44.97-30.45,87.53-13.77,65.51,14.56-22.02,28.33-65.51-14.56-65.51-14.56Z"/>
        <path d="M1170.06,919.46c-22.92,0-47.84-24.31-48.92-25.37-.84-.83-1.26-1.99-1.15-3.16.11-1.17.74-2.23,1.71-2.9,30.99-20.98,61.4-20.82,72.9-8.54,6.94,7.41,6.16,18.17-2.08,28.77-5.32,6.84-12.19,10.59-20.41,11.13-.68.04-1.37.07-2.05.07ZM1130.33,891.82c7.66,6.63,25.87,20.79,41.27,19.73,5.96-.39,10.77-3.05,14.7-8.11,3.38-4.35,8.2-12.54,2.55-18.57-7.5-8-31.54-9.59-58.53,6.95Z"/>
      </g>
      <g>
        <path class="st8" d="M1114.2,889s43.08,3.6,83.55,9.94c40.47,6.33,46.68,46.26,6.13,48.74,5.17,29-19.42,34.21-19.42,34.21,0,0,4.1,36.74-27.2,26.5-37.68-12.33-62.17-46.19-60.4-63.32,1.76-17.13,17.34-56.06,17.34-56.06Z"/>
        <path d="M1167.26,1014.13c-3.4,0-7.15-.67-11.23-2-37.53-12.28-65.2-46.95-63.09-67.46,1.8-17.48,16.96-55.51,17.61-57.13.65-1.6,2.3-2.57,3.98-2.46.43.04,43.68,3.69,83.83,9.97,25.08,3.93,37.56,19.68,36.92,33.21-.46,9.71-7.85,20.46-26.94,22.95,2.13,22.39-12.92,30.82-19.78,33.48.13,5.96-.63,18.63-8.81,25.28-3.41,2.77-7.58,4.16-12.49,4.16ZM1116.78,893.18c-3.51,9.06-14.6,38.46-16.02,52.3-.78,7.56,4.9,19.52,14.46,30.47,11.48,13.14,26.84,23.34,43.25,28.71,7.26,2.38,12.74,2.11,16.29-.77,6.12-4.97,6.25-17.25,5.78-21.56-.22-2.01,1.12-3.86,3.09-4.28,2.11-.47,20.71-5.32,16.36-29.67-.2-1.11.09-2.24.78-3.12.69-.88,1.73-1.42,2.85-1.49,14.25-.87,23.36-6.95,23.78-15.86.46-9.79-10-21.9-30.28-25.07-33.88-5.3-70.01-8.72-80.35-9.65Z"/>
      </g>
      <g>
        <path class="st8" d="M1121.94,933.29c-14.43,46.65-38.06,39.34-49.28,30.56-11.22-8.78-.75-17.96,6.87-43.68,8.19-27.63,7.7-43.33,23.79-40.43,17.75,3.19,31.73,11.14,18.61,53.55Z"/>
        <path d="M1089.77,974.27c-9.01,0-16.36-4.84-19.54-7.33-10.09-7.9-6.5-16.6-1.52-28.64,2.11-5.11,4.74-11.47,7.05-19.25,1.7-5.72,3.03-10.97,4.21-15.61,4.49-17.71,7.74-30.49,24.06-27.58,8.4,1.51,17.7,4.23,22.98,12.9,5.8,9.54,5.39,24.06-1.3,45.69h0c-6.76,21.86-16.36,34.88-28.53,38.69-2.55.8-5.03,1.13-7.39,1.13ZM1099.72,883.31c-5.96,0-7.81,5-12.14,22.07-1.19,4.7-2.54,10.04-4.28,15.91-2.42,8.17-5.14,14.74-7.32,20.02-5.26,12.73-5.86,15.56-.9,19.44,3.03,2.38,11.05,7.62,19.73,4.89,9.42-2.95,17.5-14.54,23.37-33.51h0c5.81-18.79,6.52-32.01,2.1-39.28-2.91-4.77-8.18-7.54-17.65-9.24-1.07-.19-2.03-.3-2.91-.3ZM1121.94,933.29h.03-.03Z"/>
      </g>
    </g>
  </g>
  <g>
    <g>
      <path class="st2" d="M674.19,634.8c-83.86,270.95-55.91,368.49,23.96,375.56,60.98,5.4,73.85-49.37,76.53-75.57.77-7.57-3.94-14.54-10.95-16.13h0c-4.24-.96-8.64.21-11.95,3.19-9.89,8.91-32.61,25.97-49.2,12.34-52.85-43.46,26.18-299.38,26.18-299.38h-54.58Z"/>
      <path d="M706.42,1014.13c-2.75,0-5.6-.13-8.56-.39-25.15-2.23-44.49-13.17-57.48-32.54-35.44-52.8-25.44-166.44,30.57-347.41.44-1.43,1.76-2.4,3.25-2.4h54.58c1.08,0,2.1.51,2.74,1.38s.83,1.99.51,3.02c-.78,2.54-77.77,254.23-27.27,295.75,14.72,12.09,36.2-4.53,44.76-12.24,4.1-3.69,9.69-5.17,14.98-3.98,8.69,1.98,14.53,10.49,13.58,19.8-2.49,24.37-14.47,79-71.65,79ZM676.7,638.2c-53.96,175.05-64.28,289.17-30.68,339.21,11.96,17.82,29.12,27.49,52.43,29.55,24.23,2.14,65.89-4.43,72.84-72.53.6-5.89-2.97-11.26-8.32-12.47-3.17-.72-6.42.15-8.91,2.4-9.86,8.89-34.84,27.89-53.64,12.44-50.74-41.71,13.15-263.27,23.75-298.6h-47.48Z"/>
    </g>
    <g>
      <path class="st2" d="M516.94,637.67s-32.26,160.37-143.68,224.07c-84.25,48.16-43.23,159.32,62.53,90.46,105.76-68.85,126.57-293.97,126.57-293.97l-45.43-20.56Z"/>
      <path d="M374.99,977.54c-11.72,0-20.3-3.02-25.93-6.02-14.95-7.96-24.04-23.67-24.32-42.02-.41-27.27,17.1-53.7,46.84-70.7,108.76-62.18,141.71-220.2,142.03-221.79.21-1.02.86-1.88,1.79-2.36.92-.47,2.01-.5,2.95-.07l45.43,20.56c1.32.6,2.12,1.97,1.98,3.41-.05.57-5.44,57.34-23.74,121.78-24.68,86.92-59.8,145.71-104.36,174.73-26.54,17.28-47.3,22.48-62.67,22.48ZM519.35,642.49c-6.08,25.76-42.99,164.23-144.39,222.2-21.27,12.16-43.85,35.55-43.41,64.7.24,16.07,7.79,29.24,20.72,36.12,19.88,10.59,49.66,4.7,81.69-16.16,97.37-63.39,122.14-264.68,124.79-289.03l-39.39-17.83Z"/>
    </g>
    <g>
      <path class="st2" d="M799.73,611.78v34.79c0,17.89-10.25,28.27-28.03,26.2-68.27-7.85-227.15-11.57-282.12-13.87-37.2-1.54-63.78,6.78-82.4,17.65l-6.28,12.29-8.62,28.89h-24.36c-3.65-165.86,186.09-137.96,402.14-135.88,16.42.16,29.67,13.49,29.67,29.92Z"/>
      <path d="M392.28,721.15h-24.36c-1.85,0-3.36-1.48-3.4-3.33-.9-40.93,9.58-71.71,32.05-94.12,52.9-52.76,165.31-49.99,295.48-46.76,25.34.63,51.54,1.27,78.05,1.53,18.22.18,33.03,15.12,33.03,33.32v34.79c0,10.19-3.11,18.35-8.99,23.59-5.61,5-13.53,7.07-22.83,5.99-52.98-6.09-160.73-9.69-232.03-12.08-20.19-.68-37.63-1.26-49.85-1.77-31.23-1.29-58.04,4.32-79.68,16.69l-5.68,11.12-8.53,28.59c-.43,1.44-1.76,2.43-3.26,2.43ZM371.27,714.34h18.47l7.89-26.46c.06-.2.14-.39.23-.58l6.28-12.29c.3-.58.75-1.06,1.32-1.39,22.93-13.38,51.27-19.49,84.25-18.11,12.18.51,29.61,1.09,49.79,1.77,71.41,2.39,179.32,6,232.58,12.12,7.35.85,13.4-.64,17.53-4.31,4.39-3.91,6.71-10.31,6.71-18.51v-34.79c0-14.48-11.8-26.37-26.3-26.51-26.56-.26-52.79-.9-78.15-1.53-128.6-3.17-239.67-5.92-290.5,44.78-20.47,20.42-30.34,48.52-30.1,85.82Z"/>
    </g>
    <path d="M708.96,797.49l5.35,2.02c12.3,4.38,24.89,7.15,37.31,7.63,12.44.61,24.59-1.61,36.03-5.83,22.86-8.72,42.28-27.21,56.24-49.3,1.27-1.94,2.43-3.95,3.6-5.95,3.96-6.83,12.83-9.5,21.01-6.29,8.23,3.22,11.52,13.73,6.64,22.14-1.41,2.42-2.81,4.83-4.33,7.17-8.42,13.23-18.42,25.59-30.41,36.31-11.88,10.76-25.92,19.75-41.37,25.69-15.47,5.8-32.23,8.69-48.55,7.91-16.34-.63-32.13-4.21-46.9-9.47l-6.39-2.42c-1.12-.43-2.18-.93-3.14-1.55-.94-.66-1.79-1.39-2.56-2.18-1.54-1.58-2.73-3.4-3.5-5.34-1.56-3.88-1.45-8.21.49-12.15,1.95-3.95,5.31-6.8,9-8.29,1.85-.74,3.79-1.15,5.72-1.15.97,0,1.93.09,2.88.3.96.16,1.93.38,2.86.74Z"/>
    <path d="M479.45,791.83c-1.89,1.49-3.96,2.91-5.99,4.34-4.77,3.15-10.07,6.07-16.12,8.26-6.02,2.18-12.97,3.51-20.04,3.18-7.07-.29-13.93-2.24-19.77-4.99-5.88-2.76-10.9-6.21-15.28-9.84-8.79-7.3-15.65-15.22-21.94-23.18-6.27-7.98-11.92-16.07-17.35-24.18l-4.32-6.55c-4.91-7.54-2.69-17.45,4.75-22.13,7.46-4.69,17.25-2.5,21.94,4.71l4.13,6.25c5.14,7.69,10.41,15.19,15.89,22.16,5.46,6.97,11.23,13.41,17.1,18.25,2.92,2.45,5.85,4.35,8.59,5.62,2.75,1.28,5.22,1.91,7.66,2.02,2.44.11,5.01-.31,7.92-1.36,2.89-1.05,6.01-2.68,9.16-4.76,1.38-.99,2.78-1.93,4.17-3.03,2.91-2.27,6.7-3.24,10.62-2.96,3.9.27,7.96,1.9,11.06,5.02,3.1,3.12,4.59,7.21,4.31,11.46-.29,4.22-2.46,8.56-6.49,11.69Z"/>
    <g>
      <path class="st5" d="M698.54,634.8c-83.86,270.95-55.91,368.49,23.96,375.56,60.98,5.4,73.85-49.37,76.53-75.57.77-7.57-3.94-14.54-10.95-16.13h0c-4.24-.96-8.64.21-11.95,3.19-9.89,8.91-32.61,25.97-49.2,12.34-52.85-43.46,26.18-299.38,26.18-299.38h-54.58Z"/>
      <path d="M730.76,1014.13c-2.75,0-5.6-.13-8.56-.39-25.15-2.23-44.49-13.17-57.48-32.54-35.44-52.8-25.44-166.44,30.57-347.41.44-1.43,1.76-2.4,3.25-2.4h54.58c1.08,0,2.1.51,2.74,1.38.64.87.83,1.99.51,3.02-.78,2.54-77.77,254.23-27.27,295.75,14.72,12.09,36.2-4.53,44.76-12.24,4.1-3.69,9.7-5.17,14.98-3.98,8.69,1.98,14.53,10.49,13.58,19.8-2.49,24.37-14.47,79-71.65,79ZM701.05,638.2c-53.95,175.05-64.28,289.17-30.68,339.21,11.96,17.82,29.12,27.49,52.43,29.55,24.22,2.14,65.89-4.43,72.84-72.53.6-5.89-2.97-11.26-8.32-12.47-3.17-.72-6.42.15-8.91,2.4-9.86,8.89-34.83,27.89-53.64,12.44-50.74-41.71,13.15-263.27,23.75-298.6h-47.48Z"/>
    </g>
    <g>
      <path class="st5" d="M541.29,637.67s-32.26,160.37-143.68,224.07c-84.25,48.16-43.22,159.32,62.53,90.46,105.76-68.85,126.57-293.97,126.57-293.97l-45.43-20.56Z"/>
      <path d="M399.33,977.54c-11.72,0-20.3-3.02-25.93-6.02-14.95-7.96-24.04-23.67-24.32-42.02-.41-27.27,17.1-53.7,46.84-70.7,108.76-62.18,141.71-220.2,142.03-221.79.21-1.02.86-1.88,1.79-2.36.92-.47,2.01-.5,2.95-.07l45.43,20.56c1.32.6,2.12,1.97,1.98,3.41-.05.57-5.44,57.34-23.74,121.78-24.68,86.92-59.79,145.71-104.36,174.73-26.54,17.28-47.3,22.48-62.67,22.48ZM543.69,642.49c-6.08,25.76-42.99,164.23-144.39,222.2-21.27,12.16-43.85,35.55-43.41,64.7.24,16.07,7.79,29.24,20.72,36.12,19.88,10.59,49.66,4.7,81.69-16.16,97.35-63.38,122.13-264.68,124.79-289.03l-39.39-17.83Z"/>
    </g>
    <g>
      <path class="st5" d="M392.28,717.74c-3.65-165.85,186.08-137.95,402.12-135.88,16.43.16,29.69,13.5,29.69,29.93v34.79c0,17.89-15.57,31.79-33.34,29.74-68.28-7.86-221.83-15.11-276.81-17.4-96.81-4.02-121.65,58.82-121.65,58.82Z"/>
      <path d="M392.28,721.14c-.2,0-.4-.02-.61-.06-1.59-.29-2.76-1.65-2.8-3.27-.9-40.92,9.58-71.71,32.04-94.11,52.89-52.75,165.27-49.98,295.41-46.77,25.36.63,51.58,1.27,78.1,1.53,18.23.17,33.05,15.13,33.05,33.33v34.79c0,9.5-4.06,18.57-11.15,24.89-7.08,6.31-16.55,9.31-25.98,8.23-79.16-9.12-268.54-17.04-276.56-17.38-93.02-3.85-117.36,54.2-118.35,56.68-.52,1.31-1.79,2.14-3.16,2.14ZM628.43,582.26c-90.01,0-163.9,7.56-202.7,46.26-18.71,18.66-28.55,43.72-29.93,76.36,12.85-18.51,46.29-52.36,118.28-49.36,8.03.33,197.65,8.27,277.06,17.41,7.5.86,15.03-1.52,20.67-6.55,5.64-5.03,8.88-12.25,8.88-19.81v-34.79c0-14.49-11.81-26.39-26.32-26.53-26.58-.25-52.82-.9-78.2-1.53-30.41-.75-59.85-1.48-87.73-1.48Z"/>
    </g>
    <g>
      <path class="st8" d="M523.31,581.79c0,17.58,6.16,33.25,15.74,43.48,7.32,7.76,16.61,12.41,26.66,12.41,23.45,0,42.44-25.02,42.44-55.88s-18.99-55.91-42.44-55.91c-10.06,0-19.34,4.65-26.66,12.41-9.58,10.25-15.74,25.92-15.74,43.5Z"/>
      <path d="M565.72,641.07c-10.59,0-20.94-4.78-29.14-13.47-10.6-11.31-16.67-28.01-16.67-45.81s6.07-34.5,16.66-45.82c8.21-8.7,18.56-13.49,29.15-13.49,25.28,0,45.84,26.61,45.84,59.31s-20.56,59.29-45.84,59.29ZM565.72,529.28c-8.82,0-17.19,3.92-24.19,11.34-9.41,10.07-14.82,25.08-14.82,41.17s5.4,31.09,14.82,41.15c6.99,7.41,15.36,11.33,24.18,11.33,21.52,0,39.03-23.54,39.03-52.48s-17.51-52.51-39.03-52.51Z"/>
    </g>
    <path d="M523.31,581.79c0,17.58,6.16,33.25,15.74,43.48,1.67.32,3.39.5,5.15.5,16.78,0,30.65-16.26,33.03-37.47l-24.37-7.67,24.4-4.99c-2.26-21.39-16.19-37.85-33.06-37.85-1.76,0-3.48.18-5.15.5-9.58,10.25-15.74,25.92-15.74,43.5Z"/>
    <g>
      <path class="st8" d="M680.93,581.79c0,17.58,6.16,33.25,15.74,43.48,7.32,7.76,16.61,12.41,26.66,12.41,23.45,0,42.44-25.02,42.44-55.88s-18.99-55.91-42.44-55.91c-10.06,0-19.34,4.65-26.66,12.41-9.58,10.25-15.74,25.92-15.74,43.5Z"/>
      <path d="M723.34,641.07c-10.59,0-20.94-4.78-29.14-13.47-10.6-11.31-16.67-28.01-16.67-45.81s6.07-34.5,16.66-45.82c8.21-8.7,18.56-13.49,29.15-13.49,25.28,0,45.84,26.61,45.84,59.31s-20.56,59.29-45.84,59.29ZM723.34,529.28c-8.82,0-17.19,3.92-24.19,11.34-9.41,10.07-14.82,25.08-14.82,41.17s5.4,31.09,14.82,41.15c6.99,7.41,15.36,11.33,24.18,11.33,21.52,0,39.04-23.54,39.04-52.48s-17.51-52.51-39.04-52.51Z"/>
    </g>
    <path d="M680.93,581.79c0,17.58,6.16,33.25,15.74,43.48,1.67.32,3.39.5,5.15.5,16.78,0,30.65-16.26,33.03-37.47l-24.37-7.67,24.4-4.99c-2.26-21.39-16.19-37.85-33.06-37.85-1.76,0-3.48.18-5.15.5-9.58,10.25-15.74,25.92-15.74,43.5Z"/>
    <path d="M608.15,641.07c-1.43,0-2.76-.91-3.23-2.34-.59-1.79.39-3.71,2.17-4.29,21.58-7.09,17.75-22.58,17.57-23.24-.48-1.81.59-3.67,2.39-4.17,1.8-.49,3.66.55,4.17,2.35.06.22,5.9,22.35-22.01,31.51-.35.12-.71.17-1.06.17Z"/>
    <path d="M650.62,639.07c-15.39,0-27.91-7.9-28.7-8.4-1.58-1.02-2.04-3.12-1.02-4.7,1.02-1.58,3.12-2.03,4.7-1.02h0c.06.04,6.57,4.16,15.56,6.17,11.66,2.6,21.89.59,30.39-5.99,1.48-1.15,3.62-.88,4.77.61,1.15,1.49.88,3.62-.61,4.77-8.31,6.43-17.09,8.57-25.1,8.57Z"/>
    <path d="M688.5,638.2c-.17,0-.34-.01-.51-.04-20.46-3.06-24.32-20.39-24.47-21.13-.39-1.84.79-3.64,2.63-4.03,1.82-.38,3.63.79,4.02,2.62.13.59,3.17,13.47,18.82,15.81,1.86.28,3.14,2.01,2.86,3.87-.25,1.69-1.7,2.9-3.36,2.9Z"/>
    <path d="M723.34,529.28c-1.28,0-2.51-.73-3.09-1.97-.79-1.7-.05-3.73,1.65-4.52,23.55-10.96,17.58-31.9,17.32-32.78-.54-1.8.48-3.69,2.27-4.24,1.8-.55,3.69.46,4.24,2.25,2.91,9.44,2.27,30.14-20.95,40.94-.47.22-.95.32-1.43.32Z"/>
    <path d="M743.45,535.95c-1.81,0-3.32-1.43-3.4-3.25-.08-1.88,1.38-3.47,3.25-3.55,6.97-.3,12.14-2.29,15.34-5.9,4.14-4.66,3.74-10.7,3.74-10.76-.14-1.87,1.25-3.51,3.12-3.65,1.84-.14,3.5,1.22,3.66,3.09.03.36.7,8.87-5.35,15.76-4.48,5.1-11.28,7.88-20.22,8.27-.05,0-.1,0-.15,0Z"/>
    <path d="M765.78,555.34c-2.62,0-5.37-.42-8.23-1.39-1.78-.6-2.74-2.53-2.14-4.31.6-1.78,2.53-2.74,4.31-2.14,15.49,5.21,25.46-10.8,25.88-11.48.98-1.6,3.07-2.12,4.67-1.14,1.6.97,2.12,3.06,1.15,4.66-3.7,6.14-13.12,15.8-25.64,15.8Z"/>
    <path d="M563.93,529.28c-.48,0-.97-.1-1.43-.32-23.22-10.8-23.86-31.51-20.95-40.94.55-1.8,2.46-2.8,4.25-2.25,1.79.55,2.8,2.45,2.25,4.24-.28.95-6.2,21.84,17.32,32.78,1.7.79,2.44,2.82,1.65,4.52-.58,1.24-1.81,1.97-3.09,1.97Z"/>
    <path d="M543.82,535.95s-.1,0-.15,0c-8.94-.39-15.74-3.17-20.21-8.27-6.04-6.88-5.38-15.4-5.35-15.76.16-1.87,1.84-3.26,3.68-3.09,1.86.16,3.25,1.8,3.1,3.66,0,.1-.39,6.12,3.74,10.76,3.21,3.61,8.37,5.59,15.34,5.89,1.88.08,3.33,1.67,3.25,3.55-.08,1.83-1.59,3.25-3.4,3.25Z"/>
    <path d="M521.5,555.34c-12.52,0-21.94-9.66-25.64-15.8-.97-1.61-.45-3.7,1.16-4.67,1.61-.96,3.69-.45,4.67,1.15h0c.42.69,10.39,16.69,25.88,11.48,1.78-.6,3.71.36,4.31,2.14.6,1.78-.36,3.71-2.14,4.31-2.86.96-5.61,1.39-8.23,1.39Z"/>
    <g>
      <g>
        <path class="st8" d="M855.37,739.78c-16.9,2.89-27.99,16.62,1.58,32.46,29.57,15.84,29.31,3.7,26.93-10.56-2.38-14.26-28.52-21.9-28.52-21.9Z"/>
        <path d="M877.71,783.1c-5.25,0-12.48-2.58-22.36-7.87-18.24-9.77-20.96-18.6-20.04-24.28,1.16-7.11,8.62-12.68,19.48-14.53.51-.09,1.03-.06,1.53.09,1.15.33,28.22,8.42,30.92,24.6,1.35,8.08,2.21,16.29-3.2,20.17-1.69,1.21-3.77,1.82-6.33,1.82ZM855.17,743.27c-7.27,1.41-12.51,4.89-13.14,8.78-.79,4.87,5.23,11.14,16.53,17.19,16.25,8.7,20.57,7.19,21.51,6.51,2.42-1.74,1.05-9.99.46-13.52-1.6-9.59-18.17-16.7-25.36-18.96Z"/>
      </g>
      <g>
        <path class="st8" d="M959.26,693.19c-18.07,12.9-30.49,40.75-30.49,40.75,0,0-12.67,43.31-54.92,26.93-42.24-16.38-24.82-66.01-24.82-66.01,0,0-2.64-43.83,5.8-53.36,6.97-7.88,20.08-2.36,24.13,24.8,3.36-5.7,10.29-15.82,22.34-26.92,8.52-7.84,24.43-22.38,30.23,4.41,8.46-7.02,28-8.84,20.06,19.16,16.9-1.07,28.26,15.51,7.66,30.23Z"/>
        <path d="M891.85,767.98c-6.03,0-12.45-1.31-19.22-3.94-42-16.28-28.97-63.36-27.02-69.63-.14-2.55-.58-12.14-.23-22.78.56-17.18,2.82-27.77,6.92-32.4,3.42-3.87,8.03-5.31,12.67-3.94,7.03,2.08,12.57,10.01,15.7,22.18,3.99-5.6,9.96-12.89,18.34-20.6,6.15-5.66,15.46-14.21,24.29-11.4,4.67,1.48,8.08,5.72,10.34,12.92,5.4-2.72,12.2-3.59,17.2-.33,3.97,2.59,7.84,8.42,5.09,21.57,8.07.83,14.62,5.27,16.96,11.85,1.38,3.87,2.99,14-11.65,24.46h0c-16.35,11.67-28.18,36.8-29.28,39.19-.77,2.48-7,20.89-23.52,29.04-5.13,2.53-10.67,3.79-16.59,3.79ZM861.58,641.62c-1.86,0-3.27,1.1-4.19,2.14-5.47,6.17-5.94,34.5-4.96,50.9.03.45-.04.9-.18,1.33-.66,1.9-15.8,46.74,22.84,61.72,11.54,4.48,21.74,4.61,30.3.41,14.67-7.2,20.07-24.95,20.12-25.13.04-.14.1-.29.16-.43.52-1.17,13.02-28.85,31.62-42.13h0c7.66-5.47,11.01-11.54,9.19-16.64-1.71-4.81-7.77-7.87-14.66-7.42-1.11.08-2.17-.4-2.86-1.26-.69-.86-.93-2-.63-3.06,2.66-9.37,2.21-16.03-1.21-18.26-3.43-2.24-9.7-.44-13.41,2.64-.92.76-2.17.98-3.28.6-1.13-.39-1.96-1.33-2.21-2.5-1.57-7.26-3.98-11.6-6.97-12.55-5.09-1.61-13.24,5.89-17.63,9.92-12.01,11.07-18.76,21.13-21.72,26.14-.73,1.24-2.15,1.89-3.58,1.61-1.41-.27-2.5-1.41-2.71-2.84-2.44-16.39-8.1-23.65-12.57-24.97-.51-.15-1-.22-1.46-.22ZM959.26,693.19h.02-.02Z"/>
      </g>
      <path d="M884.02,725.72c-.91,0-1.81-.36-2.48-1.07-1.29-1.37-1.22-3.52.15-4.81.06-.06,7.21-6.97,6.66-15.46-.35-5.41-3.77-10.53-10.18-15.22-.89-.65-1.41-1.69-1.39-2.79.09-7.12-.3-13.71-1.17-19.57-.28-1.86,1.01-3.59,2.86-3.87,1.87-.26,3.59,1.01,3.87,2.86.85,5.74,1.28,12.1,1.26,18.93,7.23,5.7,11.11,12.17,11.55,19.27.72,11.71-8.41,20.43-8.8,20.79-.66.62-1.5.92-2.33.92Z"/>
      <path d="M933.82,708.5c-1.23,0-2.41-.67-3.02-1.83-12.26-23.54-38.59-29.21-38.86-29.26-1.84-.38-3.02-2.18-2.65-4.01.38-1.84,2.17-3.01,4.01-2.65,1.21.25,29.74,6.3,43.53,32.79.87,1.67.22,3.72-1.45,4.59-.5.26-1.04.39-1.57.39Z"/>
      <path d="M909.23,673.98c-.36,0-.72-.06-1.08-.18-1.78-.59-2.74-2.52-2.15-4.3.17-.52,4.49-13,23.39-28.34,1.46-1.19,3.6-.96,4.79.5,1.18,1.46.96,3.6-.5,4.79-17.38,14.11-21.19,25.1-21.23,25.21-.47,1.43-1.8,2.33-3.23,2.33Z"/>
      <path d="M932.73,687.71c-.62,0-1.26-.17-1.82-.53-1.59-1.01-2.06-3.11-1.05-4.69.29-.46,7.27-11.36,19.51-22.09,1.41-1.24,3.57-1.09,4.8.32,1.24,1.41,1.1,3.56-.32,4.8-11.47,10.04-18.18,20.51-18.25,20.61-.65,1.02-1.75,1.58-2.87,1.58Z"/>
    </g>
    <g>
      <g>
        <path class="st8" d="M379.08,716.77c17.13-.66,30.82,10.48,5.15,32.09-25.67,21.6-27.92,9.67-28.53-4.78-.62-14.44,23.38-27.31,23.38-27.31Z"/>
        <path d="M363.44,764.07c-1.4,0-2.67-.26-3.85-.78-6.1-2.68-6.95-10.89-7.3-19.07-.7-16.39,24.12-29.89,25.18-30.45.46-.24.96-.38,1.48-.4,11.02-.4,19.47,3.48,22.06,10.2,2.08,5.37,1.23,14.57-14.59,27.89-10.17,8.56-17.49,12.61-22.98,12.61ZM380,720.15c-6.57,3.69-21.32,14.08-20.9,23.79.15,3.57.51,11.93,3.24,13.13,1.06.47,5.6,1.06,19.71-10.81,9.81-8.25,14.41-15.63,12.63-20.23-1.42-3.67-7.26-5.96-14.67-5.88Z"/>
      </g>
      <g>
        <path class="st8" d="M267.81,692.63c20.34,8.9,38.24,33.58,38.24,33.58,0,0,21.34,39.76,59.29,15.02,37.96-24.74,10.66-69.71,10.66-69.71,0,0-6.46-43.44-16.69-51.01-8.44-6.28-20.14,1.83-18.49,29.25-4.47-4.89-13.34-13.35-27.42-21.73-9.96-5.91-28.52-16.85-28.67,10.55-9.72-5.12-29.22-2.87-15.68,22.89-16.76,2.44-24.45,21.01-1.25,31.16Z"/>
        <path d="M341.22,752.75c-3.05,0-6.06-.38-9.03-1.14-17.85-4.56-27.74-21.29-29.01-23.56-1.57-2.11-18.33-24.26-36.74-32.3h0c-16.49-7.21-16.99-17.46-16.45-21.53.93-6.92,6.42-12.62,14.15-15.1-5.4-12.3-2.82-18.81.53-22.16,4.22-4.22,11.04-4.77,16.89-3.22.73-7.51,3.19-12.36,7.46-14.78,8.07-4.57,18.93,1.87,26.12,6.14,9.79,5.82,17.14,11.72,22.2,16.38.56-12.55,4.34-21.45,10.79-24.94,4.26-2.3,9.07-1.84,13.22,1.24,4.96,3.67,9.36,13.58,13.46,30.27,2.53,10.34,4.08,19.81,4.47,22.34,3.2,5.73,25.66,49.11-12.07,73.71-8.85,5.77-17.56,8.67-25.98,8.67ZM269.18,689.51c20.94,9.16,38.88,33.66,39.63,34.7.09.12.17.25.24.39.09.16,9.03,16.41,24.87,20.43,9.24,2.35,19.19.11,29.56-6.65,14.48-9.44,20.56-23.1,18.08-40.61-1.92-13.52-8.41-24.39-8.47-24.5-.23-.39-.39-.82-.45-1.26-2.42-16.26-8.73-43.87-15.35-48.78-1.4-1.04-3.55-2.01-5.93-.72-4.1,2.22-8.14,10.49-7.14,27.03.09,1.44-.74,2.78-2.07,3.34-1.32.56-2.86.23-3.84-.84-3.92-4.29-12.6-12.74-26.64-21.1-5.12-3.04-14.65-8.7-19.29-6.07-2.73,1.54-4.19,6.29-4.23,13.71,0,1.19-.63,2.29-1.65,2.9-1.02.61-2.28.65-3.33.09-4.27-2.24-10.77-2.71-13.67.19-2.89,2.89-1.95,9.49,2.58,18.11.51.98.52,2.14.02,3.13-.5.98-1.45,1.66-2.54,1.82-6.86,1-12.13,5.23-12.81,10.29-.72,5.37,3.81,10.61,12.43,14.39h0Z"/>
      </g>
      <path d="M347.44,709.01c-.6,0-1.21-.16-1.76-.5-.46-.28-11.19-6.92-12.9-18.53-1.04-7.03,1.43-14.17,7.32-21.24-1.42-6.68-2.32-13-2.67-18.79-.11-1.88,1.32-3.49,3.19-3.6,1.86-.13,3.49,1.32,3.6,3.19.36,5.91,1.33,12.44,2.89,19.39.24,1.07-.05,2.2-.79,3.02-5.3,5.91-7.59,11.62-6.82,16.99,1.22,8.43,9.63,13.7,9.72,13.76,1.6.98,2.1,3.08,1.12,4.68-.64,1.05-1.76,1.63-2.9,1.63Z"/>
      <path d="M295.17,702.43c-.3,0-.61-.04-.92-.13-1.81-.5-2.87-2.38-2.36-4.19,8.03-28.76,34.7-40.58,35.83-41.07,1.72-.75,3.73.05,4.47,1.77.74,1.72-.05,3.72-1.77,4.47-.26.12-24.84,11.1-31.98,36.65-.42,1.5-1.79,2.49-3.27,2.49Z"/>
      <path d="M312.1,663.58c-1.17,0-2.31-.6-2.94-1.68-.05-.08-6.29-10.19-25.97-20.29-1.67-.86-2.33-2.91-1.48-4.58.86-1.67,2.91-2.33,4.58-1.47,21.66,11.11,28.46,22.43,28.74,22.91.95,1.62.4,3.71-1.22,4.65-.54.32-1.13.47-1.72.47Z"/>
      <path d="M291.94,681.86c-.88,0-1.77-.34-2.43-1.02-.09-.09-8.82-8.94-22.11-16.41-1.64-.92-2.22-2.99-1.3-4.63.92-1.64,2.99-2.22,4.63-1.3,14.19,7.97,23.27,17.2,23.65,17.59,1.31,1.34,1.29,3.5-.06,4.81-.66.65-1.52.97-2.38.97Z"/>
    </g>
  </g>
</svg>